<svg xmlns="http://www.w3.org/2000/svg" viewBox="0 0 365 153"><g><path d="M286.91115,99.21727V0h5.496V54.89917c2.96799-7.719,12.586-12.2282,22.15399-12.2282,6.26801,0,14.18698,1.6545,19.26498,7.8752,3.49902,4.282,7.543,10.4103,7.543,17.1351v31.529c0,1.52-1.23199,2.755-2.74799,2.755s-2.74802-1.235-2.74802-2.755v-30.4283c0-11.0281-11.30399-20.5863-21.31198-20.5863-10.66602,0-22.15399,8.79119-22.15399,21.6941v29.3275c0,1.52-1.23203,2.756-2.74802,2.756s-2.74799-1.236-2.74799-2.756Zm-42.47801-15.56979c1.218-.4047,2.51399,.1989,3.045,1.3705,2.29501,5.0064,5.64499,11.2053,12.85501,11.5823,8.71899,.454,13.81799-6.1783,14.10898-11.7882,.16302-3.1955-1.06299-5.1838-3.02499-6.9378-1.96201-1.7611-5.836-3.8276-10.79401-5.8514-9.56799-4.8075-14.00897-8.5711-13.58398-16.8298,.41101-7.9249,7.76999-12.9099,16.375-12.4554,5.75101,.3053,10.12799,3.934,12.86899,8.2799,.815,1.2854,.241,3.018-1.13998,3.65-1.11902,.5113-2.42999,.1421-3.138-.8663-1.983-2.8121-4.83002-5.6099-8.60501-5.8088-5.595-.2911-10.70898,2.8476-10.978,8.0173-.29099,5.617,3.72501,7.7189,12.43701,11.4897,10.94199,5.3187,15.405,9.1108,14.95798,17.5825-.439,8.4783-7.97498,17.1493-19.59698,16.5383-9.00201-.475-14.513-7.562-17.34601-14.6991-.52399-1.328,.20601-2.8334,1.55901-3.2808v.0071Zm-8.791-11.7153v24.1441c0,1.52-1.233,2.755-2.748,2.755-1.51599,0-2.74899-1.235-2.74899-2.755v-8.8198c-1.211,3.6358-3.845,6.7248-7.918,9.2598-3.959,2.535-8.683,3.75-14.073,3.75-7.80501,0-14.51201-2.756-19.90201-8.3798-5.39-5.6241-8.02499-12.5691-8.02499-20.8349s2.642-15.2107,8.02499-20.8348c5.39-5.6241,12.097-8.3794,19.90201-8.3794,5.39,0,10.114,1.3208,14.073,3.856,4.06599,2.5351,13.41499,9.828,13.41499,26.2388Zm-43.54399,16.3185c4.29199,4.52361,9.67499,6.8386,16.056,6.8386s11.87799-2.202,16.16299-6.725c4.29199-4.5163,6.487-10.3606,6.487-17.3056s-2.19501-12.6755-6.487-17.199c-4.293-4.5163-9.675-6.8384-16.16299-6.8384s-11.76401,2.315-16.056,6.9449c-4.29201,4.63-6.382,10.3606-6.382,17.0854s2.09,12.5691,6.382,17.1991Zm-18.936-38.4316c0,1.9245-2.16701,3.082-3.73201,1.96-4.43399-3.1672-9.47699-4.7578-15.17799-4.7578-6.821,0-12.536,2.315-17.041,6.9449-4.51199,4.5164-6.707,10.2541-6.707,17.0855s2.19501,12.569,6.707,17.199c4.505,4.52361,10.22701,6.8386,17.041,6.8386,5.694,0,10.73-1.584,15.164-4.7438,1.57201-1.122,3.746,.0355,3.746,1.9668,0,.71-.297,1.399-.842,1.854-4.82401,4.033-10.908,6.1-18.06801,6.1-8.244,0-15.17101-2.756-20.78101-8.3798-5.60899-5.6241-8.46999-12.5691-8.46999-20.8348s2.86099-15.2108,8.46999-20.8349c5.61-5.6241,12.537-8.3794,20.78101-8.3794,7.061,0,13.039,2.0665,18.039,6.0999,.56,.4545,.871,1.1575,.871,1.8747v.0071Zm-55.22501,22.1131v24.1441c0,1.52-1.23299,2.755-2.74799,2.755-1.51601,0-2.748-1.235-2.748-2.755v-8.8198c-1.212,3.6358-3.846,6.7248-7.919,9.2598-3.959,2.535-8.68301,3.75-14.07301,3.75-7.805,0-14.5123-2.756-19.9021-8.3798-5.3899-5.6241-8.0247-12.5691-8.0247-20.8348s2.6419-15.2108,8.0247-20.8349c5.3898-5.6241,12.0971-8.3794,19.9021-8.3794,5.39,0,10.11401,1.3208,14.07301,3.856,4.06599,2.5351,13.41499,9.828,13.41499,26.2388Zm-43.5443,16.3185c4.2921,4.52361,9.6749,6.8386,16.0563,6.8386,6.381,0,11.87801-2.202,16.163-6.725,4.292-4.5163,6.487-10.3606,6.487-17.3055s-2.195-12.67561-6.487-17.1991c-4.293-4.5163-9.675-6.8384-16.163-6.8384s-11.7642,2.315-16.0563,6.9449c-4.292,4.63-6.3814,10.3606-6.3814,17.0855s2.0894,12.569,6.3814,17.199ZM.03064,69.32167C.0873,66.60187,.03064,0,.03064,0H5.53384V54.89917c1.2111-3.6358,3.8459-6.6112,7.805-9.1534,4.0655-2.5351,8.7967-3.856,14.1865-3.856,7.8051,0,14.4061,2.7553,19.796,8.3794,5.3898,5.6241,8.1379,12.5691,8.1379,20.8349s-2.7481,15.2107-8.1379,20.8348c-5.3899,5.6244-11.9838,8.3794-19.796,8.3794-5.3898,0-10.114-1.214-14.1865-3.749C9.37974,94.04127-.25975,86.16557,.03064,69.32167Zm43.4306,18.9885c4.2921-4.63,6.4877-10.3606,6.4877-17.199s-2.1956-12.45551-6.4877-17.0855c-4.292-4.6299-9.5686-6.9449-15.943-6.9449s-11.8775,2.315-16.1625,6.8384c-4.2921,4.5235-6.4877,10.2541-6.4877,17.1991s2.1956,12.7892,6.4877,17.3055c4.285,4.5235,9.6749,6.72449,16.1625,6.72449s11.658-2.31499,15.943-6.8381Z" fill="#f5c08b"/><path d="M48.61464,82.32937c4.5033,.5459,8.256,1.7399,11.2582,3.5822,3.0704,1.8422,5.18549,4.1962,6.3455,7.0617,.2729,.682,.4776,1.399,.614,2.149,.2047,.683,.3071,1.365,.3071,2.047,0,1.57-.3071,3.003-.9211,4.299-1.0235,2.115-2.7293,4.02599-5.1174,5.731-2.3881,1.638-5.1514,3.173-8.2901,4.606-3.1386,1.365-6.516,2.661-10.1323,3.889-3.6162,1.16-7.1984,2.252-10.7464,3.275l-2.7633,.921c-1.6376,.478-3.2751,.99001-4.9127,1.536-1.6375,.47701-3.1045,.955-4.4009,1.43201-2.3198,3.821-4.4691,7.642-6.4478,11.463,1.6375,1.228,3.6845,2.491,6.1408,3.787,2.5245,1.228,5.2538,2.388,8.1877,3.48,3.0022,1.16,6.0726,2.25101,9.2112,3.27499,3.2069,1.02301,6.3114,1.91,9.3136,2.66101,3.0704,.75099,5.9361,1.36499,8.5971,1.842,2.661,.54601,4.9467,.853,6.8572,.92101,.2047,.069,.37531,.205,.5117,.41,.2047,.20399,.273,.44299,.2047,.71599-.1364,.54601-.4435,.819-.9211,.819-1.9105-.13699-4.1962-.444-6.8572-.92099-2.5928-.41-5.4244-.99001-8.4948-1.74001-3.0022-.75101-6.1067-1.638-9.3135-2.661-3.2069-1.024-6.3114-2.11501-9.3136-3.27501-3.0022-1.15999-5.7996-2.388-8.3924-3.685-2.5928-1.29601-4.7762-2.627-6.5502-3.991-.6141,1.364-1.194,2.69499-1.7399,3.991-.4776,1.228-.9893,2.491-1.5352,3.787-.0682,.13699-.2047,.27299-.4094,.41-.1364,.20399-.2729,.30699-.4094,.30699h-.4094c-.614-.342-.8187-.78499-.614-1.33099,.5458-1.29601,1.0917-2.661,1.6375-4.09401,.6141-1.433,1.2623-2.83099,1.9446-4.196-.5459-.54599-.9894-.989-1.3305-1.33099-.3412-.341-.6141-.68201-.8188-1.02299-1.0234-1.50101-1.2623-2.968-.7164-4.401,.5458-1.433,1.7058-2.66101,3.4798-3.68401,1.774-1.024,3.9915-2.047,6.6525-3.071,1.6376-2.661,3.3092-5.288,5.015-7.88,1.774-2.593,3.4116-4.981,4.9126-7.165,1.5694-2.251,2.934-4.162,4.0939-5.731,1.2282-1.638,2.1152-2.832,2.661-3.582l.3071-.307c.0682-.069,.1023-.137,.1023-.205,.1365-.13599,.3412-.239,.6141-.307,.2729-.068,.5117-.034,.7164,.10201,.2047,.137,.3071,.376,.3071,.717,.0682,.273,0,.511-.2047,.716v.102c-.4094,.54601-1.16,1.536-2.2517,2.969-1.0234,1.364-2.2175,3.07-3.5821,5.117-1.3646,1.979-2.8998,4.19601-4.6056,6.652-1.6375,2.457-3.2751,5.049-4.9126,7.77901,1.501-.54601,3.0704-1.092,4.7079-1.638,1.7058-.54601,3.4457-1.092,5.2197-1.637,3.3433-1.024,6.7549-2.081,10.2347-3.173,3.548-1.16,6.8572-2.422,9.9276-3.78699,3.0704-1.36501,5.7314-2.797,7.983-4.298,2.3199-1.57,3.9233-3.276,4.8103-5.118,.5459-1.092,.8188-2.25101,.8188-3.48,0-1.16-.2388-2.319-.7164-3.479-1.16-2.4567-3.1046-4.5036-5.8338-6.1412-2.661-1.6375-6.0384-2.7292-10.1323-3.2751-1.774-.2047-3.6163-.307-5.5267-.307-3.2751,0-6.7549,.3752-10.4394,1.1258-3.6163,.7505-7.1643,1.8081-10.6441,3.1727-3.4115,1.2964-6.5843,2.934-9.5182,4.9128-2.9339,1.91-5.322,4.026-7.1643,6.34499-.9552,1.57001-1.7399,3.241-2.3539,5.01501-.6141,1.70599-.9212,3.378-.9212,5.015,0,1.365,.1365,2.764,.4094,4.197,.3412,1.432,.887,2.865,1.6376,4.298,.3411,.54601,.1706,.98901-.5118,1.331-.2046,.136-.4435,.17-.7164,.102-.2729-.06799-.4776-.27299-.6141-.614-1.4328-3.071-2.14924-6.141-2.14924-9.211,0-1.979,.34115-3.889,1.02344-5.732,.6823-1.91,1.6035-3.752,2.7634-5.526,1.9787-2.661,4.4691-4.981,7.4713-6.96,3.0704-2.047,6.3455-3.7527,9.8253-5.11739,3.548-1.4328,7.1984-2.4904,10.9511-3.17271,3.8209-.7505,7.4713-1.12579,10.9511-1.12579,1.9787,0,3.855,.10229,5.629,.307ZM10.54174,131.35327c.4094,.614,.8529,1.16,1.3305,1.638,.7505-1.56999,1.5352-3.071,2.3539-4.504,.8188-1.43201,1.6717-2.933,2.5587-4.50301-1.774,.75101-3.241,1.535-4.4009,2.354-1.1599,.75101-1.9105,1.535-2.2516,2.354-.1365,.341-.1706,.75099-.1024,1.228,.1365,.478,.3071,.95599,.5118,1.433Zm1.6375,1.94501l-.307-.30701c0,.136-.0341,.239-.1024,.30701v.10199l.4094-.10199Zm72.5782-10.03c.2729-.13701,.5117-.17101,.7164-.10301,.2729,0,.4776,.13701,.6141,.41,.1365,.205,.1365,.44301,0,.716-.0682,.27299-.2047,.478-.4094,.614h.1024c-4.5033,2.798-9.0748,4.845-13.7145,6.14101-4.5715,1.297-8.6312,1.94499-12.1792,1.94499-2.1834,0-4.0939-.205-5.7315-.614-1.5693-.478-2.7633-1.194-3.5821-2.14999-.3411-.27301-.6141-.64801-.8188-1.125-.2729-.47801-.4094-1.09201-.4094-1.843,0-.68201,.1706-1.433,.5118-2.25101,.2729-.819,.7846-1.73999,1.5352-2.76399,1.1599-1.569,2.3881-2.62701,3.6845-3.172,1.2964-.614,2.3198-.785,3.0704-.512,.7505,.409,1.1258,.887,1.1258,1.433-.06831,.88701-.7506,1.774-2.047,2.661-1.2281,.81801-2.968,1.569-5.2196,2.25101-.3412,.75101-.58,1.50101-.7165,2.252-.0682,.68201,.1706,1.29601,.7165,1.842,.614,.614,1.6034,1.12601,2.968,1.535,1.36459,.342,3.0022,.51201,4.9127,.51201,3.275,0,7.0619-.58,11.3604-1.74001,4.36681-1.228,8.8701-3.27499,13.5098-6.14101v.10301Zm-27.8383-2.86601h.5117l-.2047-.409-.307,.409Zm56.496,2.763c.41-.27199,.887-.20399,1.433,.205,.409,.478,.341,.92101-.205,1.33101-2.797,1.90999-6.209,3.343-10.234,4.29799-3.95799,.955-7.881,1.808-11.77,2.55901-1.365,.27299-2.7295,.51199-4.0941,.716-1.2964,.205-2.4904,.444-3.5821,.717,.2047,.75,.307,1.467,.307,2.149,0,1.092-.3752,2.11501-1.1258,3.06999-.6141,.68301-1.36459,1.194-2.25159,1.53601-.887,.27299-1.7399,.409-2.5587,.409-.5458,0-.9211-.034-1.1258-.10201-1.0917-.205-1.8081-.78499-2.1493-1.73999-.3411-1.22801,.3071-2.69501,1.9446-4.401,1.1599-1.024,2.69511-1.774,4.60561-2.252-.13641-.54601-.2388-1.091-.307-1.63701-.06831-.54599-.1024-1.092-.1024-1.638,0-1.15999,.3071-2.286,.9211-3.377,.5459-1.092,1.7058-2.047,3.4798-2.866,.6823-.27299,1.12579-.06799,1.3305,.614,.1365,.205,.1365,.444,0,.716-.1364,.205-.307,.37599-.5117,.51199-1.29639,.614-2.1834,1.29701-2.661,2.04701-.4094,.75099-.61411,1.569-.61411,2.45599s.13651,1.74001,.4094,2.55901c1.09171-.27301,2.28571-.51201,3.5821-.716,1.3647-.205,2.7295-.444,4.09351-.71701,1.84299-.34099,3.753-.68199,5.73199-1.02299,1.979-.41,3.889-.853,5.731-1.33099,1.911-.54601,3.685-1.16,5.322-1.84201,1.706-.68199,3.173-1.433,4.401-2.252Zm-30.7038,13.71501c.54581-.75101,.6823-1.87601,.4093-3.37801-.887,.342-1.6375,.649-2.2516,.922-.6823,.27301-1.19399,.58-1.53519,.92101-.61411,.614-.9893,1.12599-1.1258,1.535-.1365,.409-.2047,.68199-.2047,.819,.13651,.27299,.37531,.409,.7164,.409,.54591,.13699,1.2282,.10199,2.047-.10201,.7505-.205,1.3987-.58,1.9446-1.12599Zm64.0968-29.68101c.614,.137,.853,.546,.717,1.229-.069,.20399-.20499,.409-.40999,.614-.20401,.136-.44301,.17-.716,.102-.06801,0-.683-.102-1.842-.307-1.09201-.205-2.55901-.409-4.401-.614-1.774-.273-3.821-.512-6.14101-.717-2.31999-.20399-4.70799-.307-7.164-.307h-1.433c-.478,0-.99001,.034-1.535,.103-1.22899,2.047-2.491,4.23-3.787,6.55-1.297,2.252-2.45699,4.503-3.48,6.755-.95499,2.25101-1.70599,4.367-2.252,6.345-.477,1.979-.58,3.651-.307,5.015,.205,1.50101,.887,2.52501,2.047,3.071,.81899,.614,1.945,.92101,3.37799,.92101,1.43201,0,2.968-.30701,4.60501-.92101,1.638-.614,3.241-1.36499,4.81-2.252,1.638-.955,3.173-1.979,4.606-3.06999,1.50099-1.09201,2.79799-2.116,3.88899-3.071,1.16-.955,2.08101-1.74001,2.76401-2.354,.68199-.614,1.02299-.955,1.02299-1.02299,.27299-.13701,.54601-.205,.819-.205,.341-.06801,.58,0,.716,.205,.205,.13599,.30699,.375,.30699,.71599,0,.27301-.10199,.47801-.30699,.614-.20401,.13701-1.091,.92101-2.66101,2.354-1.50099,1.36501-3.411,2.866-5.73099,4.504-2.252,1.63701-4.70801,3.138-7.369,4.50301-2.661,1.29601-5.186,1.944-7.57401,1.944-1.706,0-3.207-.409-4.503-1.228-1.501-.819-2.456-2.28601-2.866-4.401-.204-1.569-.068-3.343,.41-5.32201,.47701-2.047,1.16-4.162,2.047-6.345,.887-2.252,1.944-4.503,3.172-6.755,1.229-2.252,2.491-4.401,3.78699-6.448-3.06999,.205-6.03799,.785-8.90399,1.74-2.93401,.887-5.117,2.217-6.55,3.991-.205,.20499-.444,.308-.717,.308s-.443-.035-.51099-.103c-.478-.409-.54601-.921-.205-1.535,1.774-2.183,4.333-3.753,7.676-4.708,3.27499-1.023,6.78899-1.603,10.542-1.74,1.02299-1.50101,2.013-2.968,2.968-4.401,1.02299-1.43301,1.944-2.729,2.763-3.889,.88699-1.228,1.60399-2.217,2.14899-2.968,.61401-.819,.99001-1.296,1.12601-1.433,.13699-.136,.341-.239,.614-.307s.51201-.034,.717,.102c.40901,.546,.47701,.99,.20401,1.331-.06801,.068-.88701,1.16-2.45601,3.275-1.569,2.115-3.48,4.84399-5.73099,8.188,2.661-.068,5.25299,0,7.778,.204,2.52499,.205,4.77599,.444,6.75499,.717,1.979,.20499,3.616,.44299,4.91301,.716,1.29599,.205,2.04599,.307,2.25099,.307Zm31.67,16.171c.205-.205,.444-.27299,.716-.205,.27299,0,.478,.069,.61501,.205,.34099,.478,.34099,.955,0,1.433-1.09201,1.02301-2.457,1.979-4.09401,2.86601-1.56999,.88699-3.31,1.67099-5.22,2.35399-1.842,.68201-3.75299,1.228-5.73099,1.63701-1.91101,.34099-3.75301,.51199-5.52701,.51199-2.52499,0-4.537-.409-6.039-1.228-.955-.54601-1.603-1.228-1.944-2.047s-.51199-1.672-.51199-2.55901c0-.54601,.034-1.05699,.10199-1.535,.13701-.54599,.23901-1.02299,.30701-1.433l-.716,.614-.614,.614c-.819,.75101-1.70599,1.53601-2.661,2.354-.955,.819-1.91,1.535-2.866,2.15001-.88701,.614-1.808,1.125-2.763,1.53499-.88701,.341-1.67201,.44301-2.354,.30701-.68201-.205-1.194-.54601-1.535-1.024-.41-.47701-.54601-1.05701-.41-1.74001,.13701-.68199,.51201-1.364,1.12601-2.04599,.54601-.75101,1.228-1.433,2.047-2.047,.819-.61501,1.70601-1.05801,2.661-1.33101,.955-.341,1.91101-.44299,2.86601-.30699,.20499,.06799,.375,.239,.51199,.51199,.136,.20399,.20399,.409,.20399,.614-.06799,.205-.239,.409-.511,.614-.20499,.136-.40999,.205-.61499,.205-.68201-.069-1.39801,.034-2.149,.30701-.68201,.27299-1.33,.64799-1.944,1.125-.61501,.40999-1.12601,.88699-1.536,1.433-.40901,.478-.64801,.92099-.716,1.33099-.06801,.205,.06799,.409,.409,.614,.478,0,1.092-.205,1.843-.614,.81799-.41,1.63699-.92099,2.45599-1.535,.819-.614,1.63701-1.263,2.45601-1.94499,.819-.68201,1.535-1.33,2.149-1.94501,1.297-1.159,2.218-1.944,2.76399-2.35399,.614-.40901,1.12601-.614,1.535-.614,.478,0,.75099,.17099,.819,.51199l-.103-.10201c.13699,.27301,.205,.54601,.205,.819,0,.20401-.06801,.47701-.205,.81801-.20401,.683-.40901,1.399-.614,2.14999-.136,.68201-.20401,1.33-.20401,1.944,0,1.36501,.44301,2.354,1.33,2.968,.614,.341,1.36501,.58,2.252,.717,.955,.136,1.944,.20401,2.968,.20401,1.50101,0,3.173-.17001,5.015-.511,1.842-.34201,3.616-.819,5.32201-1.433,1.774-.614,3.446-1.33101,5.015-2.149,1.569-.819,2.866-1.74001,3.88899-2.76401Zm44.347-.30699c.27301-.136,.51201-.136,.71701,0,.27299,.13699,.47699,.30699,.614,.51199,0,.205-.06801,.44301-.205,.716-.06801,.205-.17,.37599-.30701,.51199-.205,.136-1.02299,.51201-2.45599,1.12601-1.36501,.614-3.03601,1.29601-5.015,2.047-1.979,.75-4.12801,1.433-6.448,2.047-2.32001,.54601-4.50301,.81801-6.55,.81801-2.18401,0-4.026-.511-5.52701-1.535-.819-.614-1.433-1.50101-1.842-2.661-.341-1.16-.444-2.45601-.30701-3.88901-.478,.341-1.02399,.75101-1.63799,1.228-.61401,.41-1.194,.85301-1.74001,1.33101-1.02299,.819-2.11501,1.63699-3.27501,2.45599-1.15999,.819-2.31999,1.603-3.48,2.354-1.091,.68199-2.183,1.26199-3.27499,1.74001-1.02301,.409-1.978,.614-2.86501,.614-.683,0-1.228-.10201-1.638-.30701h.10201c-1.159-.614-1.842-1.467-2.04601-2.55901-.13699-1.09099,.136-2.217,.81801-3.377,.683-1.228,1.399-2.252,2.14999-3.071,.47701-.34099,.92101-.30699,1.33,.10301,.205,.13599,.30699,.375,.30699,.71599,0,.27301-.10199,.47801-.30699,.614-.75,.75101-1.33,1.604-1.74001,2.55901-.409,.88701-.64799,1.603-.71599,2.149,.27299,.54601,.57999,.853,.92099,.92101,.614,.342,1.433,.342,2.45601,0,1.02399-.341,2.11499-.85301,3.27499-1.535,1.16-.68201,2.32001-1.467,3.48-2.354,1.16-.88699,2.252-1.70599,3.27501-2.45599,1.911-1.433,3.27499-2.42201,4.09399-2.968,.819-.614,1.50101-.75101,2.047-.41,.136,.13699,.30701,.342,.51201,.61501,.20399,.27199,.239,.64799,.10199,1.125-.54599,2.73-.136,4.606,1.22801,5.629,.95499,.683,2.35399,1.024,4.196,1.024,1.502,0,3.17299-.205,5.015-.614,1.911-.41,3.78699-.92101,5.62999-1.535,1.84201-.614,3.548-1.263,5.117-1.94501,1.63699-.68199,2.968-1.26199,3.991-1.73999Zm30.049,.205c.13602-.13701,.341-.17101,.61401-.10301,.341,0,.57999,.069,.716,.205,.27298,.41,.27298,.88701,0,1.433-1.63702,1.29601-3.51401,2.49001-5.629,3.582-2.11502,1.09201-4.29802,2.047-6.55002,2.866-2.183,.819-4.299,1.46701-6.34599,1.944-2.04601,.41-3.855,.61501-5.424,.61501-1.63701,0-2.832-.17101-3.582-.51199-1.09201-.54601-1.774-1.33101-2.047-2.354-.205-1.092-.341-2.11501-.40901-3.071-.069-1.091-.205-1.842-.40999-2.25101-.136-.40999-.511-.614-1.12601-.614-2.592,0-4.26399-.683-5.015-2.047v.10201c-.68201-.955-.511-2.252,.51199-3.88901v.10201c.61401-1.16,1.569-2.149,2.86601-2.968,1.29599-.887,2.59299-1.33,3.88899-1.33,1.36501,.136,2.252,.614,2.661,1.433,.40901,.955,.23901,2.047-.51199,3.275-.75,1.228-1.569,2.52399-2.45599,3.889,.68199,.409,1.092,1.05701,1.228,1.944,.13699,.819,.205,1.604,.205,2.354,.06799,.95599,.17,1.73999,.30699,2.354,.136,.54599,.478,.95599,1.02301,1.22899,.342,.136,.75099,.23801,1.22899,.30701,.545,.06799,1.091,.10201,1.63701,.10201,1.50099,0,3.241-.205,5.22-.61401,1.978-.40999,3.991-.98999,6.03799-1.73999,2.11501-.75101,4.162-1.638,6.14099-2.661,1.979-1.09201,3.71899-2.28601,5.22-3.582Zm-29.98799-.61401c.27299-.34099,.58-.75099,.92101-1.228,.34099-.54599,.64799-1.058,.92099-1.536,.27301-.545,.51201-1.057,.71701-1.535,.20399-.477,.30699-.853,.30699-1.126-.06799-.13599-.205-.20399-.41-.20399h-.614c-.81799,0-1.705,.341-2.661,1.02299-1.02299,.61401-1.808,1.36501-2.354,2.25201-.136,.20399-.27299,.47699-.409,.819-.136,.34099-.136,.614,0,.81799,.136,.341,.54601,.614,1.228,.819,.614,.13701,1.33101,.239,2.149,.30701v-.205c.069-.06801,.103-.10201,.103-.10201l.10201-.10201Zm67.03401,.716c.20499-.205,.44299-.27299,.71597-.205,.27301,0,.47803,.069,.61502,.205,.341,.478,.341,.955,0,1.433-1.09201,1.02301-2.457,1.979-4.09399,2.86601-1.57001,.88699-3.31,1.67099-5.22,2.35399-1.84201,.68201-3.75302,1.228-5.73102,1.63701-1.91098,.34099-3.75299,.51199-5.52701,.51199-2.52499,0-4.53799-.409-6.03897-1.228-.95502-.54601-1.60303-1.228-1.944-2.047-.341-.819-.51202-1.672-.51202-2.55901,0-.54601,.034-1.05699,.10202-1.535,.13699-.54599,.23898-1.02299,.30698-1.433l-.71597,.614-.61401,.614c-.819,.75101-1.70599,1.53601-2.66101,2.354-.95499,.819-1.91098,1.535-2.866,2.15001-.88699,.614-1.80798,1.125-2.763,1.53499-.88699,.341-1.672,.44301-2.354,.30701-.68198-.205-1.194-.54601-1.53497-1.024-.41-.47701-.54602-1.05701-.41-1.74001,.13699-.68199,.51199-1.364,1.12598-2.04599,.54602-.75101,1.22803-1.433,2.04703-2.047,.81897-.61501,1.70599-1.05801,2.66098-1.33101,.95502-.341,1.91101-.44299,2.866-.30699,.20401,.06799,.375,.239,.51102,.51199,.13699,.20399,.20499,.409,.20499,.614-.06799,.205-.23898,.409-.51199,.614-.20401,.136-.409,.205-.61401,.205-.68198-.069-1.39798,.034-2.14899,.30701-.68201,.27299-1.33002,.64799-1.94501,1.125-.61398,.40999-1.125,.88699-1.535,1.433-.409,.478-.64798,.92099-.716,1.33099-.06799,.205,.06802,.409,.40903,.614,.478,0,1.09198-.205,1.84198-.614,.819-.41,1.638-.92099,2.457-1.535,.819-.614,1.63699-1.263,2.45599-1.94499,.819-.68201,1.535-1.33,2.14902-1.94501,1.297-1.159,2.21799-1.944,2.76401-2.35399,.61398-.40901,1.12598-.614,1.53497-.614,.47803,0,.75101,.17099,.819,.51199l-.103-.10201c.13702,.27301,.20502,.54601,.20502,.819,0,.20401-.06799,.47701-.20502,.81801-.20398,.683-.409,1.399-.61398,2.14999-.13602,.68201-.20401,1.33-.20401,1.944,0,1.36501,.44299,2.354,1.33002,2.968,.61398,.341,1.36499,.58,2.25198,.717,.95499,.136,1.944,.20401,2.96799,.20401,1.50101,0,3.173-.17001,5.01501-.511,1.84201-.34201,3.616-.819,5.32199-1.433,1.77402-.614,3.44601-1.33101,5.01501-2.149,1.569-.819,2.866-1.74001,3.88901-2.76401Zm73.92499-15.966c.34201,.068,.54599,.205,.61499,.409,.13602,.205,.20401,.41,.20401,.61501-.13599,.682-.54599,.95499-1.228,.818h-.30701c0-.068-.034-.10201-.10199-.10201-.478-.068-1.33099-.205-2.55902-.409-1.228-.205-2.72897-.41-4.50299-.61501-1.70599-.20399-3.616-.375-5.73199-.51099-2.11499-.205-4.298-.307-6.54999-.307-.54602,0-1.02301,.034-1.43301,.102h-1.32999c-1.29703,2.047-2.59302,4.23-3.88901,6.55-1.229,2.32-2.354,4.606-3.37799,6.857-.95502,2.252-1.70602,4.36699-2.25101,6.34599-.478,1.979-.58002,3.616-.30701,4.91299,.20401,1.29601,.85199,2.319,1.944,3.07001h-.10199c1.091,.68201,2.28598,1.02299,3.582,1.02299,1.43298,0,2.96799-.30699,4.60599-.92099,1.70499-.614,3.34299-1.39801,4.91199-2.354,1.638-.955,3.173-1.978,4.60602-3.07001,1.50101-1.092,2.797-2.11499,3.88901-3.06999,1.15997-.95601,2.08099-1.74001,2.763-2.354,.68298-.614,1.05798-.95599,1.12598-1.024,.409-.409,.853-.409,1.33102,0,.409,.54601,.409,1.024,0,1.433-.13702,.136-.58002,.54601-1.33102,1.22801-.68198,.68199-1.63699,1.50099-2.866,2.45599-1.16,.95599-2.52399,2.013-4.09299,3.173-1.50201,1.092-3.10501,2.11499-4.811,3.071-1.70599,.955-3.44501,1.73999-5.21899,2.35399-1.70599,.61401-3.37802,.92101-5.01501,.92101-1.70599,0-3.173-.41-4.401-1.228-.819-.41-1.46698-.99001-1.94498-1.74001-.47803-.75099-.819-1.60399-1.02301-2.55899-.34201-2.32001,.034-5.08301,1.125-8.29001,1.16-3.27499,2.59299-6.55,4.29901-9.825-1.43301,1.364-2.96802,2.763-4.60602,4.196-1.63699,1.433-3.30899,2.797-5.01498,4.09399-.81802,.61401-2.04703,1.46701-3.68402,2.55801-1.569,1.092-3.27499,2.14999-5.117,3.17299-1.84299,1.024-3.651,1.84201-5.42499,2.45601-1.77399,.54599-3.241,.61499-4.401,.205-1.43301-.61401-2.388-1.43301-2.86499-2.45601-.41-1.024-.71701-1.979-.922-2.866-.13602-.68201-.30701-1.194-.51102-1.535-.13699-.409-.37601-.64799-.71698-.717-.81802-.20399-1.87601,.069-3.17203,.819-1.297,.683-2.62698,1.56999-3.99197,2.661-1.29602,1.024-2.55902,2.11501-3.78702,3.27501-1.16,1.15999-2.047,2.116-2.66098,2.866-.20401,.205-.44302,.30699-.716,.30699-.27301,0-.478-.06799-.61401-.205-.27301-.27199-.41-.614-.41-1.02299l.41-.92101c.341-.95499,.853-2.18399,1.535-3.685,.68201-1.569,1.36499-2.93399,2.047-4.09399,.13599-.136,.341-.23801,.61401-.30701,.34097-.06799,.61398-.034,.819,.10301,.47699,.34099,.51099,.819,.10199,1.433-.61401,.955-1.228,2.217-1.84201,3.786,.88699-.81799,1.84201-1.67101,2.86502-2.558,1.09198-.88701,2.18399-1.672,3.276-2.354,1.09097-.68199,2.14899-1.228,3.172-1.638,1.02399-.409,1.94498-.54601,2.76398-.409h-.103c1.09201,.205,1.77402,.68199,2.047,1.433,.341,.75,.58002,1.50101,.71701,2.25101,.13599,.819,.375,1.60399,.716,2.35399,.341,.75101,.98898,1.33101,1.94501,1.74001,1.228,.341,3.34299-.20399,6.345-1.63699,3.07098-1.50101,6.51599-3.68501,10.33698-6.55,2.729-2.047,5.39001-4.26501,7.983-6.65301,2.59302-2.45599,4.811-4.77599,6.65302-6.96-3.207,.205-6.17499,.785-8.90399,1.74001-2.66101,.88699-4.77701,2.21799-6.34601,3.992-.13602,.273-.375,.409-.716,.409s-.54599-.102-.61401-.307c-.13699-.13599-.23898-.341-.30698-.614,0-.273,.06799-.512,.20398-.716,1.91101-2.18401,4.46902-3.75301,7.67603-4.708,3.27499-1.024,6.78897-1.638,10.54199-1.843,.819-1.228,1.638-2.456,2.45599-3.684,.88699-1.29601,1.70599-2.49001,2.457-3.582,.81799-1.092,1.535-2.047,2.14899-2.866,.61401-.88699,1.09201-1.569,1.43301-2.047l.51199-.512c.13602-.136,.341-.204,.61401-.204,.341-.06799,.61398-.034,.81799,.10201,.478,.341,.51199,.785,.103,1.331-.069,.068-.75101,.95499-2.047,2.661-1.228,1.637-2.729,3.786-4.50299,6.448l-1.53601,2.25101c2.66101-.068,5.254,0,7.77899,.20499,2.52402,.205,4.776,.443,6.755,.716,1.978,.205,3.582,.444,4.81,.717,1.29602,.204,2.047,.341,2.25101,.409Z" fill="#f4f4f1"/></g></svg>
