<?xml version="1.0" encoding="UTF-8"?>
<svg id="a" data-name="Layer 1" xmlns="http://www.w3.org/2000/svg" width="450" height="120" viewBox="0 0 450 120">
  <path d="m27.75556,3.1442226H11.3704066c-3.3636324,0-6.1241143,2.3285478-6.1241143,5.1752393v55.0284313c0,2.8447797,2.7604819,5.1745801,6.1241143,5.1745801h16.3851534c18.7194204,0,33.2073348-13.9735284,33.2073348-32.6884661C60.9628948,17.1171577,46.4749804,3.1442226,27.75556,3.1442226Zm0,53.6479017c-.433253,0-6.3307949.0241273-10.2622917.0888623V14.9596104h10.2622917c11.3019246,0,20.5309453,9.5766251,20.5309453,20.8743967,0,11.3849858-9.2290207,20.9581171-20.5309453,20.9581171Z" fill="white"/>
  <path d="m232.1529882,94.1540346l.2369221.1576844c2.0806168,1.3789475,2.394799,4.3647335.6978458,6.6352703l-10.9916977,14.726155c-1.6956348,2.2718553-4.7857087,3.0012116-6.8663914,1.6242417l-.2381747-.1584095c-2.0780458-1.3789475-2.3922281-4.365986-.6965274-6.6371821l10.9916318-14.7222656c1.6969532-2.2744262,4.7870271-3.005101,6.8663914-1.6254942" fill="white"/>
  <path d="m184.7718552,94.1540346l.2394931.1576844c2.0793643,1.3789475,2.3934806,4.3647335.6990983,6.6352703l-10.9955212,14.726155c-1.6918113,2.2718553-4.7844562,3.0012116-6.8638204,1.6242417l-.2356037-.1584095c-2.0793643-1.3789475-2.394799-4.365986-.6965274-6.6371821l10.9890608-14.7222656c1.6969532-2.2744262,4.7844562-3.005101,6.8638204-1.6254942" fill="#00adee"/>
  <path d="m208.4611033,94.1540346l.2382406.1576844c2.0806168,1.3789475,2.394799,4.3647335.6965274,6.6352703l-10.9890608,14.726155c-1.6982716,2.2718553-4.7844562,3.0012116-6.8651389,1.6242417l-.2407456-.1584095c-2.0793643-1.3789475-2.3896571-4.365986-.6939564-6.6371821l10.9928843-14.7222656c1.6957007-2.2744262,4.7819511-3.005101,6.8612495-1.6254942" fill="#7ac69a"/>
  <path d="m161.0826072,94.1540346l.2368562.1576844c2.0806827,1.3789475,2.3961175,4.3647335.6991642,6.6352703l-10.9929502,14.726155c-1.6969532,2.2718553-4.7806327,3.0012116-6.8625679,1.6242417l-.2394272-.1584095c-2.0806827-1.3789475-2.3935465-4.365986-.6952749-6.6371821l10.9916318-14.7222656c1.6957007-2.2744262,4.7844562-3.005101,6.8625679-1.6254942" fill="#d01847"/>
  <path d="m66.3241648,94.1540346l.2394931.1576844c2.0819352,1.3789475,2.3922281,4.3647335.6990983,6.6352703l-10.9916318,14.726155c-1.6982716,2.2718553-4.7870271,3.0012116-6.8638204,1.6242417l-.2414048-.1584095c-2.0761341-1.3789475-2.3928873-4.365986-.6952749-6.6371821l10.9910385-14.7222656c1.6956348-2.2744262,4.7831377-3.005101,6.862502-1.6254942" fill="#00adee"/>
  <path d="m42.6361692,94.1540346l.2394931.1576844c2.0787051,1.3789475,2.3928873,4.3647335.6971866,6.6352703l-10.9948785,14.726155c-1.693723,2.2718553-4.7837968,3.0012116-6.8619085,1.6242417l-.2394931-.1584095c-2.078705-1.3789475-2.3908933-4.365986-.6952089-6.6371821l10.9890772-14.7222656c1.6988649-2.2744262,4.7870271-3.005101,6.8657322-1.6254942" fill="#d01847"/>
  <path d="m18.9449273,94.1540346l.2427232.1576844c2.078705,1.3789475,2.3896571,4.3647335.6959341,6.6352703l-10.9948617,14.726155c-1.6918113,2.2718553-4.7825285,3.0012116-6.8619085,1.6242417l-.2375814-.1584095c-2.0780301-1.3789475-2.3928872-4.365986-.6978458-6.6371821l10.9916974-14.7222656c1.6976124-2.2744262,4.7851153-3.005101,6.8618426-1.6254942" fill="#fdc453"/>
  <path d="m137.3920407,94.1540346l.2407456.1576844c2.0793643,1.3789475,2.3922281,4.3647335.6965274,6.6352703l-10.9916318,14.726155c-1.6969532,2.2718553-4.7844562,3.0012116-6.8638204,1.6242417l-.2394931-.1584095c-2.0793643-1.3789475-2.3909096-4.365986-.6965274-6.6371821l10.9929502-14.7222656c1.6956348-2.2744262,4.7844562-3.005101,6.8612495-1.6254942" fill="#fdc453"/>
  <path d="m113.7052977,94.1540346l.2381747.1576844c2.0793643,1.3789475,2.3948649,4.3647335.6978458,6.6352703l-10.9928843,14.726155c-1.6944482,2.2718553-4.7845221,3.0012116-6.8664573,1.6242417l-.2356037-.1584095c-2.0793643-1.3789475-2.3934806-4.365986-.6978458-6.6371821l10.9916977-14.7222656c1.6956348-2.2744262,4.7857087-3.005101,6.865073-1.6254942" fill="white"/>
  <path d="m90.0147312,94.1540346l.2369221.1576844c2.0819352,1.3789475,2.394799,4.3647335.6978458,6.6352703l-10.9903793,14.726155c-1.6969532,2.2718553-4.7844562,3.0012116-6.862502,1.6242417l-.242064-.1584095c-2.0781118-1.3789475-2.3896571-4.365986-.6940224-6.6371821l10.9916977-14.7222656c1.6930638-2.2744262,4.7818852-3.005101,6.862502-1.6254942" fill="#7ac69a"/>
  <path d="m391.6303995,7.2028822v54.6038304c0,3.1248805-2.4379117,5.6999091-5.5022762,5.9355128-.2021156.0206335-.406802.0348066-.6089835.0348066-1.7020951,0-3.3945656-.7223027-4.5687608-2.1193128l-33.6045782-41.8267128v37.9757061c0,3.277423-2.6793825,5.9561463-5.9561463,5.9561463-3.2754454,0-5.9586513-2.6787233-5.9586513-5.9561463V7.2028822c0-1.8537147.8600788-3.5172457,2.2016488-4.6112802.0257753-.019315.0437719-.0431786.0682288-.0640758,1.1124266-.9327903,2.4708066-1.3898905,3.8239788-1.3898905,1.7034135,0,3.3952249.7213139,4.566849,2.1163463l33.6252117,41.8553886V7.2028822c0-3.2738632,2.6818875-5.9564759,5.9579921-5.9564759,3.2741928,0,5.955487,2.6826126,5.955487,5.9564759" fill="white"/>
  <path d="m101.6759285,13.2915967c-12.1620694,0-21.9936133,9.8316098-21.9936133,21.9948658,0,12.2441417,9.8315439,22.0776633,21.9936133,22.0776633,12.2469764,0,22.0798387-9.8335215,22.0798387-22.0776633,0-12.163256-9.8328623-21.9948658-22.0798387-21.9948658m0,55.8038668c-19.2344657,0-34.6732329-14.6643865-34.6732329-33.8090011,0-19.1494268,15.4387672-33.8124949,34.6732329-33.8124949,19.1481084,0,34.6705961,14.6630681,34.6705961,33.8124949,0,19.1446146-15.5224876,33.8090011-34.6705961,33.8090011" fill="white"/>
  <path d="m226.5676508,58.4871657c6.9835999,0,11.7294261-3.9701269,11.7294261-9.5734609,0-15.612932-34.5006502-2.33013-34.5006502-29.1548059,0-11.7287668,9.9204062-18.2849313,22.7712242-18.2849313,6.8123357,0,14.5787544,2.1576132,20.0095716,5.7810586,2.3278227,1.5511347,3.0192082,4.7416071,1.382771,7.5890237-1.6415791,2.7611252-4.8295465,4.140666-7.2462315,2.6722629-4.5707384-2.8454389-8.5388877-4.4838538-14.146111-4.4838538-6.295972,0-10.0053791,1.9831188-10.0053791,6.7264399,0,15.0090245,34.5006502,2.3297344,34.5006502,29.1548059,0,12.7652518-10.5229294,20.1817587-24.4952711,20.1817587-8.2775086,0-15.6988279-2.4160917-21.6485138-6.5567577l-.2588081-.2575556c-2.2428498-1.7258928-2.5879492-5.0889479-.7751059-7.9353757,1.8952453-2.4143777,5.4333882-3.363978,7.5011502-1.8102065,3.9668968,3.015978,9.3166305,5.9515977,15.1812776,5.9515977" fill="white"/>
  <path d="m292.2079397,13.2915967c-12.1626627,0-21.995525,9.8316098-21.995525,21.9948658,0,12.2441417,9.8328623,22.0776633,21.995525,22.0776633,12.2463171,0,22.0779269-9.8335215,22.0779269-22.0776633,0-12.163256-9.8316098-21.9948658-22.0779269-21.9948658m0,55.8038668c-19.2363774,0-34.6744854-14.6643865-34.6744854-33.8090011,0-19.1494268,15.438108-33.8124949,34.6744854-33.8124949,19.1461967,0,34.6725737,14.6630681,34.6725737,33.8124949,0,19.1446146-15.526377,33.8090011-34.6725737,33.8090011" fill="white"/>
  <path d="m424.859027,58.4871657c6.9848525,0,11.7242183-3.9701269,11.7242183-9.5734609,0-15.612932-34.4993977-2.33013-34.4993977-29.1548059,0-11.7287668,9.9191537-18.2849313,22.7751795-18.2849313,6.8110173,0,14.5735465,2.1576132,20.0081872,5.7810586,2.3265702,1.5511347,3.0154507,4.7416071,1.377695,7.5890237-1.6390082,2.7611252-4.8282281,4.140666-7.2436606,2.6722629-4.5733094-2.8454389-8.5376352-4.4838538-14.1422217-4.4838538-6.3005206,0-10.0118394,1.9831188-10.0118394,6.7264399,0,15.0090245,34.502562,2.3297344,34.502562,29.1548059,0,12.7652518-10.5197651,20.1817587-24.4907226,20.1817587-8.2859466,0-15.7014647-2.4160917-21.6549741-6.5567577l-.2562372-.2575556c-2.2441682-1.7258928-2.5892018-5.0889479-.7789293-7.9353757,1.8964978-2.4143777,5.4333222-3.363978,7.5024028-1.8102065,3.9694677,3.015978,9.3211131,5.9515977,15.1877379,5.9515977" fill="white"/>
  <path d="m243.9274387,91.136013c0-1.1027361.5704194-1.7117196,1.6724963-1.7117196h1.8759303c1.1034613,0,1.6712438.6089835,1.6712438,1.7117196v22.7082031h10.8088313c1.1420254,0,1.7098079.5754954,1.7098079,1.6712438v1.1465081c0,1.1375427-.5677825,1.7117856-1.7098079,1.7117856h-14.3560053c-1.1020769,0-1.6724963-.5742429-1.6724963-1.7117856v-25.525955Z" fill="white"/>
  <path d="m274.3723957,114.457089c3.3861936,0,6.1994628-2.606605,6.1994628-6.4820686,0-3.8323508-2.8132692-6.4846395-6.1994628-6.4846395-3.3823042,0-6.1531199,2.6522887-6.1531199,6.4846395,0,3.8754635,2.7708157,6.4820686,6.1531199,6.4820686m0-17.3675007c6.3230658,0,11.4551923,4.5237363,11.4551923,10.8854321,0,6.4009191-5.1321266,10.8854321-11.4551923,10.8854321-6.3179239,0-11.4139254-4.484513-11.4139254-10.8854321,0-6.3616958,5.0960015-10.8854321,11.4139254-10.8854321" fill="white"/>
  <path d="m299.7934036,114.457089c3.3810517,0,6.1930684-2.606605,6.1930684-6.4820686,0-3.8323508-2.8120167-6.4846395-6.1930684-6.4846395-3.3855344,0-6.158921,2.6522887-6.158921,6.4846395,0,3.8754635,2.7733866,6.4820686,6.158921,6.4820686m0-17.3675007c6.3192423,0,11.4538739,4.5237363,11.4538739,10.8854321,0,6.4009191-5.1346316,10.8854321-11.4538739,10.8854321-6.3249775,0-11.4197265-4.484513-11.4197265-10.8854321,0-6.3616958,5.094749-10.8854321,11.4197265-10.8854321" fill="white"/>
  <path d="m315.0609725,91.136013c0-1.1027361.6064126-1.7117196,1.7098079-1.7117196h1.7523273c1.1407729,0,1.7124448.6089835,1.7124448,1.7117196v13.7811033h2.5673158l4.3235325-6.1962326c.4905884-.8163069,1.0995719-1.144003,2.0394817-1.144003h1.9583323c1.3866604,0,1.8359818.9405691,1.055734,2.0394817l-5.1745801,7.2578337v.0829953l6.1144899,9.3745096c.6939564,1.1838856.2472059,2.0420527-1.1407729,2.0420527h-2.2042197c-.9360205,0-1.5488934-.3675787-1.9943914-1.1845448l-4.8514325-7.9086774h-2.6934897v7.3814367c0,1.1375427-.5716719,1.7117856-1.7124448,1.7117856h-1.7523273c-1.1033953,0-1.7098079-.5742429-1.7098079-1.7117856v-25.525955Z" fill="white"/>
  <path d="m345.2625471,114.4197115l.4905884-.7377284c.6089835-.8555302,1.30294-.9366797,2.3201099-.4081205.9836818.5336352,2.5300042,1.4278613,4.6479985,1.4278613,1.7967585,0,2.8988354-.8169661,2.8988354-2.1193128,0-3.3829635-10.3189021-2.1211586-10.3189021-9.2553893,0-4.0750082,3.590946-6.2374336,7.9524494-6.2374336,2.7733207,0,4.690452.8961379,5.7913423,1.5089449.9392506.486699,1.0602826,1.3435476.610236,2.279634l-.4081205.7351574c-.486699.9797924-1.2630574,1.0989127-2.2814798.6527554-.8961379-.406868-2.2415973-1.0197409-3.9547013-1.0197409-1.7960993,0-2.8132033.7306748-2.8132033,2.03757,0,3.4280538,10.3156719,2.0799576,10.3156719,9.1787884,0,3.6687994-3.1010169,6.3996666-7.9105892,6.3996666-3.3449926,0-5.6703103-1.2656283-6.9333677-2.1212245-.9373389-.5291525-1.0197409-1.4285206-.406868-2.3214283" fill="white"/>
  <path d="m364.4016902,99.2886662c0-1.1027361.569101-1.7117856,1.6673544-1.7117856h1.5926653c1.0995719,0,1.6725622.6090494,1.6725622,1.7117856v1.2656283c0,.4493874-.0811495.9360864-.0811495.9360864h.0811495c1.0184224-2.0388225,3.5471082-4.4007926,6.8096988-4.4007926,3.1364168,0,5.2196704,1.4658322,6.0758598,4.2823315h.0811495c1.099506-2.1643372,3.8310324-4.2823315,7.096194-4.2823315,4.3203023,0,6.8065346,2.4456246,6.8065346,7.9092707v11.663109c0,1.1401137-.6089835,1.7117856-1.7123789,1.7117856h-1.7497564c-1.1446623,0-1.7169275-.5716719-1.7169275-1.7117856v-10.6839099c0-2.3677712-.4468164-4.160047-2.8531517-4.160047-3.5085441,0-5.2988422,3.5877159-5.2988422,7.2172919v7.6266649c0,1.1401137-.5716719,1.7117856-1.6712438,1.7117856h-1.7960993c-1.1008244,0-1.7124448-.5716719-1.7124448-1.7117856v-10.6839099c0-2.2409381-.326971-4.160047-2.7733207-4.160047-3.6707111,0-5.3831559,3.7499489-5.3831559,7.2172919v7.6266649c0,1.1401137-.5703535,1.7117856-1.6724963,1.7117856h-1.7948468c-1.0982535,0-1.6673544-.5716719-1.6673544-1.7117856v-17.3733018Z" fill="white"/>
  <path d="m407.8597642,114.9083881c2.8930343,0,4.7677121-2.9381906,4.7677121-5.468788v-.7712824h-.8549369c-2.6098352,0-7.0543997.4075272-7.0543997,3.5085441,0,1.3808593,1.0622603,2.7315264,3.1416246,2.7315264m3.8767161-9.3809699h.8510475v-.486699c0-2.7321197-1.7510089-3.6687994-3.8741451-3.6687994-1.7497564,0-3.3424217.6508437-4.32228,1.1799962-1.017104.4461572-1.7922099.2819466-2.2827323-.6927039l-.4056155-.7776768c-.4930934-.937273-.3257185-1.7516681.6501845-2.2795681,1.3480962-.6932972,3.7094071-1.7123789,6.8097647-1.7123789,5.3857269,0,8.6039523,3.0140663,8.6039523,8.2742785v11.2981012c0,1.1401137-.5677825,1.7117856-1.7098738,1.7117856h-1.3898905c-1.096935,0-1.6711779-.5716719-1.6711779-1.7117856v-.8182186c0-.5703535.0849729-.8961379.0849729-.8961379h-.0849729s-1.9570798,3.9147528-6.5252472,3.9147528c-3.7904906,0-6.8908483-2.446943-6.8908483-6.2387521,0-6.0752006,7.5050396-7.096194,12.1568616-7.096194" fill="white"/>
  <path d="m422.6772865,99.2886662c0-1.1027361.5697602-1.7117856,1.6680136-1.7117856h1.5913469c1.1034613,0,1.7136973.6090494,1.7136973,1.7117856v1.9576731c0,.7764243-.1183952,1.4279273-.1183952,1.4279273h.079831c.8124175-2.4888032,3.0990392-5.2602122,6.032022-5.2602122,1.1407729,0,1.5515302.5716719,1.5515302,1.715609v1.5894351c0,1.0989127-.6540739,1.7111264-1.7548983,1.7111264-3.7879197,0-5.6252859,3.7499489-5.6252859,7.5443289v6.6874143c0,1.1401137-.5729244,1.7117856-1.6711779,1.7117856h-1.7986702c-1.0982535,0-1.6680136-.5716719-1.6680136-1.7117856v-17.3733018Z" fill="white"/>
  <path d="m439.763434,101.977014h-1.0982535c-1.1033953,0-1.6763198-.5677825-1.6763198-1.7078962v-.6971866c0-1.0995719.5729244-1.7066437,1.7149498-1.7066437h1.1806554v-4.2437015c0-1.0989127.6128729-1.7142906,1.7124448-1.7142906h1.6300428c1.1033953,0,1.7111264.6153779,1.7111264,1.7142906v4.2437015h3.0230976c1.1014836,0,1.7117856.6070718,1.7117856,1.7066437v.6971866c0,1.1401137-.610302,1.7078962-1.6705846,1.7078962h-3.0642986v8.0786232c0,3.0984459,1.9209547,3.7087479,3.3462451,3.8696624,1.2637166.1255806,1.7156749.5317894,1.7156749,1.6751332v1.2623982c0,1.2244274-.6940224,1.7111264-2.119972,1.7111264-3.7144831,0-8.1165941-1.9969623-8.1165941-7.6221823v-8.9747612Z" fill="white"/>
  <path d="m175.3265458,55.8908445h-18.2700989l.0051419-41.391894h15.9577019c4.4226786,0,8.0032749,3.1474257,8.0032749,7.4052343,0,4.1694079-3.4454571,7.1503156-7.7406433,7.2745778l-5.5917318.0463429c-2.7205835,0-4.932516,2.6378519-4.932516,5.8724259,0,2.500735,1.3338572,4.5611139,3.1917909,5.3838151.6115545.3189945,1.2823724.5027839,1.990502.5027839h7.3865785c4.4779868,0,8.09985,3.1010169,8.09985,7.4126176,0,4.3048767-3.6218632,7.4940966-8.09985,7.4940966m13.7070074-22.0302656c2.7244728-3.1753764,4.4175367-7.2292237,4.4175367-11.9563941,0-11.2356075-9.1994219-18.9823816-20.4317993-18.9823816h-22.0502399c-1.6905588,0-3.2175662.6058193-4.3171381,1.5630665-1.1239629.9392506-1.8270165,2.2383671-1.8270165,3.6707771v54.2835834c0,2.8457685,2.7566426,5.1691086,6.1144899,5.1691086h24.3871598c11.3727244,0,20.6790052-7.8388006,20.6790052-19.2115909,0-6.1054586-2.7321197-11.1329017-6.9719977-14.536169" fill="white"/>
</svg>