<svg xmlns="http://www.w3.org/2000/svg" width="240" height="75" viewBox="0 0 240 75"><polygon points="79.8 37.204 79.8 11.517 98.284 11.517 98.284 16.183 84.651 16.183 84.651 23.202 97.549 23.202 97.549 27.686 84.651 27.686 84.651 37.204 79.8 37.204" fill="#68ad3d"/><path d="M104.30976,19.08647l.33085,2.09482a5.34,5.34,0,0,1,5.10775-2.57249,6.87541,6.87541,0,0,1,4.66728,1.72723l-2.02138,3.89542a4.47761,4.47761,0,0,0-3.23371-1.17613c-2.35172,0-4.51994,1.24955-4.51994,4.59388v9.55428h-4.48323v-18.117Z" fill="#68ad3d"/><path d="M132.7589,28.16338a9.04531,9.04531,0,0,1-9.44362,9.4447c-5.88013,0-9.408-4.2263-9.408-9.4447a9.42582,9.42582,0,1,1,18.85161,0m-14.36836,0c0,2.756,1.65328,5.32851,4.92474,5.32851,3.2704,0,4.92369-2.57249,4.92369-5.32851a5.11627,5.11627,0,0,0-4.92369-5.3652c-3.23422,0-4.92474,2.64591-4.92474,5.3652" fill="#68ad3d"/><path d="M148.67408,37.20363V27.72224c0-2.756-1.507-4.8508-4.37314-4.8508-2.75653,0-4.63057,2.31554-4.63057,5.07156v9.26063h-4.446V19.04994h4.005l.29417,2.46184a8.17119,8.17119,0,0,1,5.953-2.71931c4.263,0,7.68076,3.197,7.68076,8.89307v9.51809Z" fill="#68ad3d"/><path d="M175.04323,11.51627V37.2039h-4.18908l-.29364-2.49907a6.5948,6.5948,0,0,1-5.84342,2.90334c-5.32849,0-9.33457-3.52786-9.33457-9.48139,0-6.24768,3.93215-9.48139,9.22394-9.48139,1.91126,0,4.88752,1.02932,5.954,2.90337V11.51627ZM159.8663,28.12678a5.20132,5.20132,0,1,0,10.39952,0,5.16987,5.16987,0,0,0-5.25456-5.29178,4.99788,4.99788,0,0,0-5.145,5.29178" fill="#68ad3d"/><path d="M183.44607,13.97848c0,3.49115-5.29178,3.49115-5.29178,0s5.29178-3.49116,5.29178,0m-4.88751,23.22526h4.48323V19.01333h-4.48323Z" fill="#68ad3d"/><path d="M192.6621,13.97836v5.145h4.9976v3.85821h-5.03431v7.82809a2.24934,2.24934,0,0,0,2.35172,2.572,5.11868,5.11868,0,0,0,2.16822-.55111l1.24953,3.822a10.00667,10.00667,0,0,1-3.71193.77133c-3.93212.14735-6.5041-2.09427-6.5041-6.61422V22.98155h-3.381V19.12334h3.381V14.45606Z" fill="#68ad3d"/><path d="M204.53123,11.4795V21.54869a6.68955,6.68955,0,0,1,5.65935-2.71929c5.14444,0,7.42278,3.49115,7.42278,8.81964v9.55481h-4.48323v-9.5181c0-3.30711-1.72723-4.704-4.11567-4.704-2.6459,0-4.48323,2.24163-4.48323,4.96092v9.26117H200.048V11.4795Z" fill="#68ad3d"/><path d="M235.20028,19.08638H239.5V37.2039h-4.22579l-.22073-2.64589c-1.02881,2.1315-3.85874,3.16029-5.8796,3.197-5.3652.03671-9.33457-3.2704-9.33457-9.62821,0-6.24768,4.15288-9.51808,9.44469-9.48139a6.6501,6.6501,0,0,1,5.76948,2.94008Zm-10.8772,9.0404a5.18931,5.18931,0,0,0,5.3652,5.512c7.05572,0,7.05572-10.98735,0-10.98735a5.15906,5.15906,0,0,0-5.3652,5.47531" fill="#68ad3d"/><path d="M94.7193,60.44091A9.32141,9.32141,0,0,1,87.73751,63.307c-5.25562,0-9.62874-3.16027-9.62874-9.5915,0-6.43069,4.37312-9.591,9.62874-9.591a8.60134,8.60134,0,0,1,6.5408,2.6826L91.44888,49.7834a5.5071,5.5071,0,0,0-3.6385-1.43307,5.09632,5.09632,0,0,0-5.21785,5.3652,4.93625,4.93625,0,0,0,5.145,5.29233,5.4466,5.4466,0,0,0,3.96884-1.507Z" fill="#579ec4"/><path d="M110.22967,44.63868h4.29972V62.7562H110.3036l-.22075-2.6459c-1.02879,2.13151-3.85874,3.16029-5.8796,3.197-5.3652.03671-9.33457-3.2704-9.33457-9.62821,0-6.24768,4.1529-9.51808,9.44469-9.48139a6.65009,6.65009,0,0,1,5.76948,2.94007Zm-10.87722,9.0404a5.189,5.189,0,0,0,5.3652,5.512c7.05572,0,7.05572-10.98735,0-10.98735a5.15878,5.15878,0,0,0-5.3652,5.47531" fill="#579ec4"/><path d="M122.17931,44.63884l.33086,2.09481a5.34,5.34,0,0,1,5.10774-2.57249,6.87542,6.87542,0,0,1,4.66729,1.72723l-2.02138,3.89542a4.47763,4.47763,0,0,0-3.23371-1.17613c-2.35173,0-4.51994,1.24955-4.51994,4.59388v9.55428h-4.48323v-18.117Z" fill="#579ec4"/><path d="M136.5029,55.29615c.29364,2.24162,2.24162,3.85874,5.40191,3.85874a7.47742,7.47742,0,0,0,4.85081-1.69052l2.86613,2.82941a11.12638,11.12638,0,0,1-7.79036,2.94006c-6.24716,0-9.95906-3.85873-9.95906-9.66492,0-5.51254,3.74808-9.48139,9.62821-9.48139,6.06364,0,9.84843,3.74863,9.15051,11.20862Zm9.84845-3.71191c-.29417-2.35173-2.131-3.52786-4.704-3.52786a4.88072,4.88072,0,0,0-5.07156,3.52786Z" fill="#579ec4"/><path d="M35.77538,63.45537a34.40951,34.40951,0,0,1-7.18787-.75559,34.94363,34.94363,0,0,1-8.61568-3.05909,35.39547,35.39547,0,0,1-7.621-5.25456,35.8222,35.8222,0,0,1-6.071-7.13962A36.25353,36.25353,0,0,1,2.22031,38.6733,36.70769,36.70769,0,0,1,.50305,29.22653a2.62188,2.62188,0,1,1,5.23779-.25012,31.46963,31.46963,0,0,0,1.47238,8.096A31.0072,31.0072,0,0,0,10.68708,44.405a30.56108,30.56108,0,0,0,5.18272,6.09353,30.14409,30.14409,0,0,0,6.492,4.47485,29.72445,29.72445,0,0,0,7.3221,2.59871,29.25943,29.25943,0,0,0,7.632.59986,28.826,28.826,0,0,0,7.4128-1.3801,28.37307,28.37307,0,0,0,6.69707-3.207,27.81341,27.81341,0,0,0,2.93743-2.20439,2.62162,2.62162,0,1,1,3.41722,3.9767,32.89727,32.89727,0,0,1-3.49534,2.62283,33.59408,33.59408,0,0,1-7.93559,3.79843,34.035,34.035,0,0,1-8.7625,1.62969q-.90689.04719-1.81164.04719" fill="#eee809"/><path d="M34.4021,74.97933a2.62205,2.62205,0,0,1-2.62178-2.62178v-30.551c-.35079-.10751-.69372-.2281-1.02564-.36077a14.39638,14.39638,0,0,1-3.28875-1.8515,14.61164,14.61164,0,0,1-2.7644-2.73189,15.07874,15.07874,0,0,1-2.00409-3.46074,15.51333,15.51333,0,0,1-1.05133-3.97671,15.93517,15.93517,0,0,1,.03093-4.22577,16.41393,16.41393,0,0,1,1.16984-4.1786A16.86111,16.86111,0,0,1,25.131,17.1975a17.27342,17.27342,0,0,1,3.28771-3.16921,17.7042,17.7042,0,0,1,4.10255-2.25211,18.16354,18.16354,0,0,1,4.65994-1.12683,18.60967,18.60967,0,0,1,4.90586.13475,19.07164,19.07164,0,0,1,4.8094,1.44566q.29023.13134.57731.27318a2.62174,2.62174,0,1,1-2.3187,4.70294q-.21079-.10382-.42419-.2003A13.8,13.8,0,0,0,41.24545,15.96a13.37725,13.37725,0,0,0-3.52419-.09491,12.93208,12.93208,0,0,0-3.3134.80332,12.46364,12.46364,0,0,0-2.88762,1.58774A12.02087,12.02087,0,0,0,29.232,20.46527a11.7826,11.7826,0,0,0-1.571,2.63385,11.319,11.319,0,0,0-.79335,2.84252,10.86569,10.86569,0,0,0-.01836,2.83571,10.44644,10.44644,0,0,0,.69844,2.63174,9.971,9.971,0,0,0,1.3088,2.25472,9.49737,9.49737,0,0,0,1.77442,1.74978,8.73551,8.73551,0,0,0,1.14938.733v-8.052a7.16284,7.16284,0,0,1,1.40893-4.42451,6.97981,6.97981,0,0,1,1.55262-1.42468,7.69155,7.69155,0,0,1,1.93015-.92863,8.16406,8.16406,0,0,1,2.21331-.36337A8.474,8.474,0,0,1,41.214,21.234a9.06834,9.06834,0,0,1,2.25788.95328,9.40043,9.40043,0,0,1,1.9915,1.60086A9.86966,9.86966,0,0,1,47.006,25.95894a10.312,10.312,0,0,1,.93492,2.60972,10.80587,10.80587,0,0,1,.20345,2.87452,11.21678,11.21678,0,0,1-.59723,2.93114,11.66767,11.66767,0,0,1-1.411,2.76387,12.121,12.121,0,0,1-2.17083,2.368,12.5991,12.5991,0,0,1-2.81841,1.76446,13.02577,13.02577,0,0,1-3.29243.98421c-.27475.043-.55215.07708-.83057.10278V72.35755a2.62206,2.62206,0,0,1-2.62177,2.62178m4.629-48.78339h-.05193a2.97731,2.97731,0,0,0-.7493.12743,2.53129,2.53129,0,0,0-.57521.28159,1.79244,1.79244,0,0,0-.34241.30464,1.967,1.967,0,0,0-.28839,1.185v8.98273l.02465-.00366a7.71509,7.71509,0,0,0,1.94692-.58518,7.27891,7.27891,0,0,0,1.6255-1.02093,6.8267,6.8267,0,0,0,1.21651-1.33134,6.48415,6.48415,0,0,0,.765-1.50594,6.02062,6.02062,0,0,0,.31042-1.54266,5.53826,5.53826,0,0,0-.10645-1.454A5.07079,5.07079,0,0,0,42.3508,28.371a4.71728,4.71728,0,0,0-.7147-.9989,4.21717,4.21717,0,0,0-.86781-.69163,3.76825,3.76825,0,0,0-.91815-.38329,3.34893,3.34893,0,0,0-.819-.10122" fill="#579ec4"/><path d="M35.76621,52.91447a23.71228,23.71228,0,0,1-4.381-.40531A24.37911,24.37911,0,0,1,25.31,50.52132a24.82217,24.82217,0,0,1-5.44386-3.56352A25.25741,25.25741,0,0,1,15.46,42.01471a25.69243,25.69243,0,0,1-3.0187-6.02117,26.128,26.128,0,0,1-1.37224-6.71123,26.56927,26.56927,0,0,1,.42787-6.95137,27.009,27.009,0,0,1,2.25735-6.71017A27.89032,27.89032,0,0,1,15.168,13.08865a2.62179,2.62179,0,0,1,4.43867,2.79167,22.516,22.516,0,0,0-1.14729,2.055,21.7777,21.7777,0,0,0-1.81741,5.40716,21.29931,21.29931,0,0,0-.34136,5.57809,20.8651,20.8651,0,0,0,1.09748,5.36361,20.43376,20.43376,0,0,0,2.40416,4.79,20.00634,20.00634,0,0,0,3.49116,3.91537,19.57117,19.57117,0,0,0,4.2929,2.80791,19.117,19.117,0,0,0,4.76742,1.55839,18.682,18.682,0,0,0,4.89434.25746,18.20282,18.20282,0,0,0,4.67986-1.00152,17.80541,17.80541,0,0,0,4.15657-2.13413A17.3545,17.3545,0,0,0,49.455,41.4117a16.89409,16.89409,0,0,0,2.39368-3.74181,16.45646,16.45646,0,0,0,1.30145-4.1272,16.01407,16.01407,0,0,0,.17461-4.20951,15.56019,15.56019,0,0,0-.904-3.99664,15.15491,15.15491,0,0,0-1.862-3.52157c-.108-.15154-.21971-.30308-.33454-.45251a2.62156,2.62156,0,1,1,4.15446-3.19857q.23361.3036.4562.61664a20.36007,20.36007,0,0,1,2.50693,4.74541,20.808,20.808,0,0,1,1.206,5.34318,21.28986,21.28986,0,0,1-.23438,5.58753,21.70137,21.70137,0,0,1-1.71832,5.44175,22.14662,22.14662,0,0,1-3.13878,4.9022,22.5949,22.5949,0,0,1-4.392,3.99139,23.05931,23.05931,0,0,1-5.382,2.76127,23.46048,23.46048,0,0,1-6.028,1.28781q-.94541.07393-1.88819.0734" fill="#68ad3d"/><path d="M61.32721,50.1345a2.62207,2.62207,0,0,1-2.16087-4.1036A27.90806,27.90806,0,0,0,61.031,42.88111a27.07788,27.07788,0,0,0,2.33756-6.68449,26.62323,26.62323,0,0,0,.51335-6.94718,26.16655,26.16655,0,0,0-1.28729-6.72958A25.70777,25.70777,0,0,0,59.655,16.45831a25.29215,25.29215,0,0,0-4.33851-5.00286A24.855,24.855,0,0,0,49.923,7.81485a24.43609,24.43609,0,0,0-6.04582-2.077,23.974,23.974,0,0,0-6.26341-.42683A23.49805,23.49805,0,0,0,31.568,6.504a23.09669,23.09669,0,0,0-5.426,2.6721,22.217,22.217,0,0,0-1.95952,1.46924,2.62188,2.62188,0,1,1-3.37108-4.01656,27.50815,27.50815,0,0,1,2.42252-1.81583,28.31187,28.31187,0,0,1,6.65931-3.27828A28.79275,28.79275,0,0,1,37.28866.07746a29.26964,29.26964,0,0,1,7.63357.52226,29.64558,29.64558,0,0,1,7.34516,2.52477,30.1011,30.1011,0,0,1,6.53137,4.41036A30.52037,30.52037,0,0,1,64.03549,13.577a30.96926,30.96926,0,0,1,3.53836,7.298A31.41364,31.41364,0,0,1,69.117,28.95318a31.85184,31.85184,0,0,1-.61611,8.31732,32.29662,32.29662,0,0,1-2.79219,7.97965A33.24475,33.24475,0,0,1,63.49278,48.994a2.62,2.62,0,0,1-2.16557,1.14047" fill="#9bcd6c"/></svg>