<svg width="293" height="98" viewBox="0 0 293 98" fill="none" xmlns="http://www.w3.org/2000/svg">
<g clip-path="url(#clip0_102_1756)">
<path d="M140.816 89.9668H134.145V84.416H132.453V97.5041H134.145V91.4575H140.816V97.5041H142.524V84.416H140.816V89.9668Z" fill="white"/>
<path d="M154.105 84.1582C150.468 84.1582 148.171 86.7879 148.171 90.9585C148.171 95.1292 150.468 97.7588 154.105 97.7588C157.743 97.7588 160.04 95.1292 160.04 90.9585C160.04 86.7879 157.743 84.1582 154.105 84.1582ZM154.105 96.2179C151.533 96.2179 149.932 94.1778 149.932 90.9619C149.932 87.746 151.53 85.7059 154.105 85.7059C156.681 85.7059 158.278 87.746 158.278 90.9619C158.278 94.1778 156.661 96.2179 154.105 96.2179Z" fill="white"/>
<path d="M174.277 90.8679C173.688 92.5228 173.102 94.2312 172.549 95.8861H172.512C171.96 94.2312 171.374 92.5228 170.784 90.8679L168.413 84.416H165.693V97.5041H167.348V90.8512C167.348 89.1963 167.331 87.5247 167.311 85.8498H167.348C167.917 87.5214 168.523 89.1762 169.13 90.8512L171.554 97.5041H173.504L175.928 90.8512C176.535 89.1796 177.141 87.5247 177.71 85.8498H177.747C177.73 87.5214 177.71 89.1963 177.71 90.8512V97.5041H179.365V84.416H176.625L174.274 90.8679H174.277Z" fill="white"/>
<path d="M187.48 91.548H193.839V90.0606H187.48V85.9235H194.225V84.416H185.788V97.5041H194.426V95.9967H187.48V91.548Z" fill="white"/>
<path d="M212.822 89.9866C210.672 89.454 209.661 89.0487 209.661 87.6517C209.661 86.4022 210.635 85.6116 212.253 85.6116C214.182 85.6116 215.247 86.5295 215.247 88.4624H216.955C216.955 85.6317 215.394 84.1611 212.27 84.1611C209.604 84.1611 207.933 85.6518 207.933 87.7656C207.933 90.3953 209.808 91.0184 212.327 91.6448C214.44 92.1775 215.525 92.546 215.525 93.9965C215.525 95.447 214.477 96.3113 212.605 96.3113C210.639 96.3113 209.443 95.3197 209.443 93.169H207.698C207.698 96.184 209.537 97.7651 212.588 97.7651C215.438 97.7651 217.273 96.2577 217.273 93.906C217.273 91.2227 215.307 90.5963 212.826 89.99L212.822 89.9866Z" fill="white"/>
<path d="M226.37 84.416L221.406 97.5041H223.208L224.641 93.6082H230.412L231.829 97.5041H233.647L228.667 84.416H226.37ZM229.863 92.1175H225.177L225.619 90.9215C226.282 89.1025 226.889 87.4108 227.512 85.5918H227.548C228.175 87.4108 228.781 89.1025 229.441 90.9215L229.863 92.1175Z" fill="white"/>
<path d="M238.671 97.5041H240.362V91.8997H246.464V90.3923H240.362V85.9235H246.869V84.416H238.671V97.5041Z" fill="white"/>
<path d="M253.805 91.548H260.165V90.0606H253.805V85.9235H260.551V84.416H252.114V97.5041H260.755V95.9967H253.805V91.548Z" fill="white"/>
<path d="M291.483 56.4677C289.336 54.8698 287.313 57.0138 287.313 57.0138C286.202 58.1226 285.15 59.2147 284.159 60.2498C279.674 64.9229 276.814 67.6899 274.928 66.7051C272.353 65.3651 272.845 63.2379 278.237 52.5014L279.051 50.8767C282.414 44.1501 279.945 39.8589 276.516 38.0801C272.105 35.7988 265.263 37.1454 259.894 41.7851C259.824 40.9141 259.656 40.1269 259.368 39.4401C258.672 37.7685 257.345 36.5994 255.637 36.1438C250.125 34.6766 246.223 41.0246 241.702 48.3777C236.705 56.5113 230.482 66.6314 222.16 66.6314C218.543 66.6314 216.972 65.144 216.911 61.6601C221.229 61.9515 226.008 60.4474 230.114 57.4392C235.844 53.2351 238.942 46.4816 237.318 41.7281C236.782 40.1503 234.886 36.519 228.576 36.6497C222.227 36.8105 215.438 45.3762 212.568 53.8347C211.931 53.1212 211.452 52.2267 211.138 51.1715C211.074 50.9236 211.02 50.6523 210.977 50.3642C212.193 48.3744 213.187 46.6726 213.7 45.6475C214.838 43.5136 215.699 40.2776 214.376 38.194C213.703 37.132 212.564 36.5358 211.342 36.5994C209.081 36.7133 207.728 38.8573 206.757 40.8069C205.695 43.1418 205.123 46.1232 205.129 48.8668C202.226 53.5165 198.471 59.2046 197.028 61.1342C194.549 64.3936 192.945 65.7872 192.084 66.3734C192.004 65.9111 191.934 65.2211 191.934 64.2295C191.934 57.6 193.819 41.2189 193.836 41.0548C194.004 39.6009 193.056 38.2543 191.636 37.9226C190.212 37.5843 188.769 38.3715 188.27 39.745C184.492 50.1967 176.839 66.5443 172.599 67.2678C171.678 67.4253 167.003 66.7486 170.66 56.9602C174.408 51.0241 177.385 44.9474 178.896 41.6812C179.505 40.358 179.036 38.7869 177.797 38.0231C176.558 37.256 174.94 37.5374 174.036 38.6764C173.959 38.7769 173.433 39.4368 172.666 40.4954C170.767 38.2141 168.584 37.3196 166.859 36.9947C159.842 35.6849 152.039 41.9157 146.731 47.3761C142.856 51.3591 139.999 55.9317 137.477 59.9617C135.364 63.3418 132.581 67.7737 131.04 67.8373C130.531 67.8373 130.015 67.4621 129.918 67.2879C129.292 66.1289 129.302 62.1391 133.324 54.5382C134.021 53.2217 134.691 51.9889 135.313 50.8399C139.547 43.0513 142.889 36.9009 136.898 33.0284C132.534 30.2011 126.653 32.1909 120.062 38.6228C120.594 37.4637 121.12 36.3147 121.646 35.1858C134.788 25.5179 141.955 14.212 143.251 10.4634C144.909 5.68309 142.826 2.62127 140.545 1.4488C137.393 -0.169203 133.254 1.12051 130.923 4.42352C128.223 8.20557 122.895 18.865 117.061 31.4004C114.736 33.0385 112.221 34.623 109.519 36.0869C100.248 41.1117 85.7397 44.7598 75.0125 44.7598C75.0125 44.7598 72.0988 44.666 72.0988 47.5871C72.0988 50.5082 75.0125 50.5183 75.0125 50.5183C86.5837 50.5183 102.248 46.5788 112.261 41.1486C112.405 41.0715 112.549 40.9911 112.693 40.9107C108.165 50.9136 103.644 61.2883 100.064 69.8372C99.451 71.2911 100.128 72.9694 101.578 73.5958C101.949 73.7533 102.335 73.8303 102.713 73.8303C103.822 73.8303 104.873 73.1871 105.349 72.1118C111.099 59.0304 115.641 52.3741 120.691 46.408C126.793 39.1956 131.887 36.653 133.763 37.8724C135.079 38.7233 134.145 40.9342 130.25 48.103C129.613 49.2688 128.937 50.5183 128.227 51.8549C125.243 57.4928 122.238 65.2211 124.851 70.0382C125.966 72.0984 127.976 73.3546 130.514 73.5791C135.451 74.0246 138.653 68.9261 142.347 63.0202C143.114 61.7974 143.907 60.5245 144.751 59.2415C144.246 61.2983 144.048 63.3083 144.289 65.144C144.741 68.5542 146.704 71.137 149.822 72.4167C154.661 74.3998 159.856 70.8254 164.548 65.3718C165.067 68.112 166.383 70.591 169.109 72.2291C170.767 73.2106 172.639 73.3781 174.532 72.6947C178.742 71.1872 182.978 64.9397 186.414 58.3839C186.267 60.6116 186.173 62.6617 186.173 64.2362C186.173 65.9178 186.173 71.0398 189.938 72.3061C193.143 73.3848 196.74 71.0164 201.613 64.608C202.731 63.1173 204.958 59.8076 207.222 56.3036C208.247 57.8646 209.594 59.1309 211.205 60.0387C211.158 60.6015 211.138 61.1442 211.144 61.6835C211.231 68.3901 215.341 72.3932 222.15 72.3932C233.687 72.3932 240.841 60.7523 246.595 51.3993C248.397 48.4682 252.556 41.7047 254.047 41.7047H254.077C255.091 43.6644 252.365 51.8951 247.901 61.0772C245.111 66.3399 243.611 69.2141 243.584 69.261C242.861 70.6513 243.376 72.3664 244.753 73.1201C246.133 73.8705 247.854 73.3848 248.634 72.0214C249.699 70.1521 251.521 66.8592 253.393 63.0101C255.108 59.7808 257.265 55.7341 259.824 50.9504C263.732 43.6543 271.134 41.7817 273.86 43.1954C275.652 44.1233 274.654 46.7932 273.897 48.304L273.09 49.9187C268.321 59.4157 264.204 67.6162 272.266 71.8137C278.113 74.8654 283.063 69.6999 288.305 64.2395C289.39 63.1073 291.912 60.5144 291.912 60.5144C292.813 59.3822 292.729 57.4057 291.476 56.4711L291.483 56.4677ZM221.925 47.2856C224.795 42.981 229.367 40.1168 231.551 43.2892C233.972 46.8133 229.099 51.607 224.588 54.0491C221.095 55.9384 217.913 55.9284 217.913 55.9284C217.913 55.9284 219.256 51.2854 221.925 47.2856ZM137.929 6.58087C141.195 8.55061 127.795 22.2785 127.795 22.2785C135.049 4.24598 137.929 6.58087 137.929 6.58087ZM165.342 54.4377C164.756 56.317 162.693 58.5346 160.867 60.8126C157.689 64.7722 153.992 68.3599 151.172 66.7017C146.731 64.0888 151.815 53.3624 153.901 50.3575C155.589 47.9288 162.853 39.2659 169.237 45.7346C169.237 45.7346 166.949 49.2889 165.342 54.4343V54.4377Z" fill="white"/>
<path d="M30.3888 76.038C26.9894 76.038 18.7606 69.2779 17.8329 68.5074C14.1221 65.4221 7.39038 59.2114 3.97427 52.257C-0.336049 43.4668 -0.627423 34.556 3.19393 28.419C6.12776 23.7124 11.1246 21.1162 17.2703 21.1162C21.8887 21.1162 26.4636 23.1295 30.3922 26.8446C34.3207 23.1295 38.8922 21.1162 43.514 21.1162C49.6563 21.1162 54.6565 23.709 57.5904 28.419C61.4117 34.5527 61.1204 43.4635 56.8067 52.2536C53.3939 59.208 46.6588 65.4221 42.948 68.504C42.0203 69.2745 33.7915 76.0346 30.3922 76.0346L30.3888 76.038ZM17.2703 26.7541C13.0839 26.7541 9.86873 28.3621 7.97647 31.4004C5.19 35.8726 5.5852 42.7399 9.0348 49.7713C13.8642 59.6167 27.2808 69.0266 30.3888 70.313C33.4968 69.0266 46.9134 59.6167 51.7428 49.7713C55.1924 42.7399 55.5876 35.8726 52.8011 31.4004C50.9089 28.3621 47.6937 26.7541 43.5073 26.7541C41.5615 26.7541 37.931 27.3638 34.0695 31.119C36.8694 35.1021 38.5506 39.6278 38.5506 43.3764C38.5506 45.7514 37.8707 47.7848 36.5847 49.2555C35.5699 50.4145 33.6709 51.798 30.3888 51.798C25.4288 51.798 22.227 48.4917 22.227 43.3764C22.227 39.6245 23.9083 35.0954 26.7115 31.1123C24.0456 28.5564 20.7467 26.7541 17.2703 26.7541ZM30.4089 35.762C28.8281 38.4017 27.8602 41.2056 27.8602 43.3764C27.8602 44.3512 28.0645 45.1217 28.4329 45.5471C28.7913 45.9558 29.4477 46.1635 30.3888 46.1635C31.3299 46.1635 31.9863 45.9558 32.3447 45.5471C32.7131 45.125 32.9174 44.3545 32.9174 43.3764C32.9174 41.142 31.9863 38.385 30.4089 35.762Z" fill="#27AAE1"/>
</g>
<defs>
<clipPath id="clip0_102_1756">
<rect width="292" height="97" fill="white" transform="translate(0.521362 0.762207)"/>
</clipPath>
</defs>
</svg>
