<svg id="Layer_1" data-name="Layer 1" xmlns="http://www.w3.org/2000/svg" viewBox="0 0 256 32">
  <g>
    <g>
      <path d="M16.18359,9.79492V13.5332H8.27734V23.8457q0,2.85792,2.16993,2.85742,2.38476,0,2.38476-3.459v-.81641h4.18945V23.459q0,1.418-.08593,2.42774-.40869,4.70508-7.00391,4.70508-6.57422,0-6.57422-6.03711V13.5332H.69336V9.79492H3.35742V5.19727H8.27734V9.79492Z" fill="#003774"/>
      <path d="M32.61084,23.75977h4.94141v.79492q0,6.01611-9.02344,6.01562-6.123,0-8.01367-2.084-1.89112-2.083-1.89063-8.83008,0-5.99413,1.97656-8.05664,1.97608-2.0625,7.71289-2.0625,5.49976,0,7.36915,2.00879,1.86914,2.00831,1.86914,7.89551v1.5039H23.65186q-.04321.68849-.043.90235,0,3.0293.93457,4.03906.93456,1.01074,3.72754,1.00976a6.8115,6.8115,0,0,0,3.52343-.59082Q32.61036,25.71533,32.61084,23.75977Zm.043-5.82227-.02149-.81641q0-2.44921-.84863-3.17968-.84888-.72949-3.68457-.73047-2.75025,0-3.57715.88086-.82764.88184-.82715,3.8457Z" fill="#fc9a1f"/>
      <path d="M54.3877,22.49219h4.89843v.709l-.30078,3.11524q-.90234,4.25389-8.80859,4.2539-5.80079,0-7.71289-2.09472-1.91236-2.09473-1.91211-8.43262,0-6.1875,1.91211-8.33594,1.91162-2.14819,7.43359-2.14844,5.32764,0,7.21875,1.55762,1.89037,1.55713,1.89063,5.919h-4.877q0-3.58742-4.14648-3.58789-2.9436,0-3.69531,1.13867-.7522,1.13964-.752,5.58594,0,4.29784.82715,5.40332.8269,1.10742,4.04981,1.10644,2.53491,0,3.25488-.76269Q54.38721,25.15722,54.3877,22.49219Z" fill="#003774"/>
      <path d="M67.46338,1.00781V13.18945l.10742.02149q1.37475-3.65186,6.31641-3.65235,7.19677,0,7.19726,6.81055V30.334H76.16455V17.05664q0-3.60938-3.67383-3.60937-5.02734,0-5.02734,5.2207V30.334H62.54346V1.00781Z" fill="#003774"/>
      <path d="M85.56641,9.79492h4.87695l-.19336,3.459.10742.02148q1.43921-3.71631,6.44531-3.7168,7.2832,0,7.28321,6.78907V30.334H99.166V17.18555l-.10743-1.43946q-.34423-2.29833-3.60937-2.29882-4.9629,0-4.96289,4.70507V30.334H85.56641Z" fill="#003774"/>
      <path d="M113.4668,1.00781V5.11133h-4.91992V1.00781Zm0,8.78711V30.334h-4.91992V9.79492Z" fill="#003774"/>
      <path d="M131.03223,22.49219h4.89843v.709l-.30078,3.11524q-.90234,4.25389-8.80859,4.2539-5.80079,0-7.71289-2.09472-1.91309-2.09473-1.91211-8.43262,0-6.1875,1.91211-8.33594Q121.02,9.55884,126.542,9.55859q5.32764,0,7.21875,1.55762,1.88966,1.55713,1.89063,5.919h-4.877q0-3.58742-4.14648-3.58789-2.94434,0-3.69531,1.13867-.75294,1.13964-.752,5.58594,0,4.29784.82715,5.40332.82617,1.10742,4.04981,1.10644,2.53418,0,3.25488-.76269Q131.03174,25.15722,131.03223,22.49219Z" fill="#003774"/>
      <path d="M144.30176,15.74609h-5.02735q0-3.69434,1.71875-4.9414,1.71827-1.24586,6.81055-1.2461,5.543,0,7.49805,1.52539,1.95409,1.52637,1.95508,5.82227V30.334h-4.91993l.23633-2.81445-.1289-.02148q-1.418,3.07325-6.55274,3.07226-7.45605,0-7.45508-6.33789,0-6.40137,7.627-6.40234,5.0918,0,6.1875,2.3418h.08593V16.8418q0-2.40528-.83789-3.19043-.83788-.78369-3.4375-.78418Q144.30127,12.86719,144.30176,15.74609Zm3.28711,5.39258q-4.16895,0-4.168,2.87891,0,1.998.85937,2.62109a6.87834,6.87834,0,0,0,3.60938.623q4.48974,0,4.49023-3.0293Q152.37988,21.13867,147.58887,21.13867Z" fill="#003774"/>
      <path d="M166.72266,1.00781V30.334h-4.91993V1.00781Z" fill="#003774"/>
      <path d="M176.125,1.00781V5.11133h-4.91992V1.00781Zm0,8.78711V30.334h-4.91992V9.79492Z" fill="#003774"/>
      <path d="M193.86328,9.79492V13.5332H185.957V23.8457q0,2.85792,2.16992,2.85742,2.38478,0,2.38477-3.459v-.81641h4.18945V23.459q0,1.418-.08594,2.42774-.40869,4.70508-7.0039,4.70508-6.57422,0-6.57422-6.03711V13.5332h-2.66406V9.79492h2.66406V5.19727H185.957V9.79492Z" fill="#003774"/>
      <path d="M201.97559,1.00781V5.11133h-4.91993V1.00781Zm0,8.78711V30.334h-4.91993V9.79492Z" fill="#003774"/>
      <path d="M219.69238,23.75977h4.94141v.79492q0,6.01611-9.02344,6.01562-6.123,0-8.01367-2.084-1.89111-2.083-1.89063-8.83008,0-5.99413,1.97657-8.05664,1.97607-2.0625,7.71289-2.0625,5.499,0,7.36914,2.00879,1.86914,2.00831,1.86914,7.89551v1.5039H210.7334c-.0293.459-.043.75977-.043.90235q0,3.0293.93457,4.03906.93457,1.01074,3.72754,1.00976a6.81278,6.81278,0,0,0,3.52344-.59082Q219.69189,25.71533,219.69238,23.75977Zm.043-5.82227-.02148-.81641q0-2.44921-.84864-3.17968-.8496-.72949-3.68457-.73047-2.751,0-3.57714.88086-.82764.88184-.82715,3.8457Z" fill="#003774"/>
      <path d="M245.5293,15.44531h-4.8125q-.044-.2578-.06446-.38672-.15087-1.48242-.84863-1.84765a9.32948,9.32948,0,0,0-3.38379-.36524q-3.84668,0-3.8457,2.49219,0,1.69776.67676,2.01953a19.22933,19.22933,0,0,0,4.58691.51563q5.26318.25781,6.85352,1.39648,1.58936,1.13966,1.58984,4.66211,0,3.76026-2.11621,5.21-2.1167,1.4502-7.59473,1.4502-5.26464,0-7.19726-1.31055-1.93361-1.30957-1.9336-4.89844v-.51562h5.11328a4.41411,4.41411,0,0,0-.1289.6875q-.30176,2.729,4.21094,2.72851,4.66113,0,4.66211-2.707,0-2.59863-2.92188-2.59961-6.59619,0-8.69043-1.24609-2.09472-1.24512-2.09473-5.17774,0-3.52294,1.91211-4.76953,1.91163-1.24584,7.34766-1.24609,5.13427,0,6.90723,1.20312Q245.5293,11.9436,245.5293,15.44531Z" fill="#003774"/>
    </g>
    <g>
      <path d="M247.79688,7.332v3.87256h-.88477V7.332h-1.34668v-.793h3.626v.793Z" fill="#003774"/>
      <path d="M255.03809,6.53906v4.66553h-.88477v-2.543q0-.304.0166-.69043l.01758-.34863.0166-.34522h-.02734l-.10547.32471-.10254.32471q-.14355.43725-.22266.646l-1.02539,2.63184h-.80664l-1.03515-2.61133q-.08643-.21533-.22559-.646l-.10644-.32471-.10547-.32129h-.02735l.0166.33838.01758.3418q.0205.39624.02051.68017v2.543H249.583V6.53906h1.44238l.834,2.16016q.08642.22558.22558.646l.10254.32471.10645.32129h.03027l.09961-.32129.10254-.32129q.126-.40648.21875-.64258l.82031-2.167Z" fill="#003774"/>
    </g>
  </g>
</svg>
