<svg id="Layer_1" data-name="Layer 1" xmlns="http://www.w3.org/2000/svg" viewBox="0 0 1265.5674 841.8898"><title>logo</title><path d="M407.8618,538.5649A183.25,183.25,0,0,1,329.4629,464.15l.0061.0028L251.35,638.2305,169.4364,480.2546H64.1191L251.35,796.2064,407.8606,538.5641Z" style="fill:#febe10"/><path d="M661.1171,225.8171h79.53v107.404H842.7236V225.8171h79.53V512.7784h-79.53V403.7339H740.6469V512.7784h-79.53Z" style="fill:#febe10"/><path d="M466.2856,592.62a33.82,33.82,0,0,1,6.2737.5828,30.0371,30.0371,0,0,1,5.8167,1.8513,38.1247,38.1247,0,0,1,5.36,2.9369c.9885.6856,1.897,1.36,2.72,2.0113l-5.8967,5.908a21.594,21.594,0,0,0-14.1874-5.0395,22.9512,22.9512,0,0,0-8.7422,1.6912,23.5383,23.5383,0,0,0-7.3423,5.04,22.4588,22.4588,0,0,0-4.9938,7.3823h-.04a22.4222,22.4222,0,0,0,5.0338,24.8666,21.0293,21.0293,0,0,0,7.3423,4.9939,22.9512,22.9512,0,0,0,8.7422,1.6913,23.3112,23.3112,0,0,0,8.7878-1.6913,20.9275,20.9275,0,0,0,5.4853-3.3026l5.8567,5.8967a33.7828,33.7828,0,0,1-2.7255,2.0226,29.4386,29.4386,0,0,1-5.36,2.9255,27.3,27.3,0,0,1-5.8167,1.817,30.7689,30.7689,0,0,1-6.268.6171,31.18,31.18,0,0,1-11.9248-2.2627,30.4744,30.4744,0,0,1-10.062-6.8451A29.7483,29.7483,0,0,1,437.4993,635.6a32.4478,32.4478,0,0,1,0-23.8381,32.6115,32.6115,0,0,1,16.9072-17.0386,30.52,30.52,0,0,1,8.5822-2.1027Z" style="fill:white"/><path d="M496.5231,592.9515h19.1357a23.3571,23.3571,0,0,1,8.6621,1.6113,21.4369,21.4369,0,0,1,6.9309,4.4111,20.2264,20.2264,0,0,1,4.3711,6.068,17.8612,17.8612,0,0,1,1.32,7.2109v1.737a17.4751,17.4751,0,0,1-.9485,5.8624,23.0877,23.0877,0,0,1-2.8055,5.3138,13.9907,13.9907,0,0,1-3.0512,3.2569,16.32,16.32,0,0,1-3.794,1.9884l-2.8855,1.1542,1.6913,2.64,12.9476,20.0784H527.8692L513.8875,632.8h-9.0736v21.484h-8.2508Zm20.3756,31.6432.04.0342a11.0353,11.0353,0,0,0,4.4167-.8227,12.6761,12.6761,0,0,0,3.5026-2.5941,11.1061,11.1061,0,0,0,2.64-3.9654,11.932,11.932,0,0,0,.7828-4.5825,12.1528,12.1528,0,0,0-.7828-4.4454,13.125,13.125,0,0,0-2.6-3.714v-.0457a11.3522,11.3522,0,0,0-4.4511-2.56,17.8193,17.8193,0,0,0-5.6109-.857H504.7739V624.549h2.5541l3.0969.0457h6.4738Z" style="fill:white"/><path d="M598.3493,654.2837h-8.7822l-4.5368-10.102H558.9581l-4.5367,10.102h-8.7822L571.9971,592.38Zm-26.3751-16.6958h10.045q-2.52-5.7767-5.0111-12.4219-2.5026-6.6338-4.971-12.4561-2.52,5.811-5.0567,12.4561-2.537,6.651-5.0111,12.4219Z" style="fill:white"/><path d="M648.4253,634.4453v-41.62h8.2107v62.5778L616.5821,612.71v41.7452H608.377V592.3344Z" style="fill:white"/><path d="M704.0265,592.8258v8.1708H677.3372v18.5585h20.01v8.1707h-20.01v18.5586h26.6893v8.1707H669.1322V592.8258Z" style="fill:white"/><path d="M767.73,592.9515h13.776v8.1251H765.13v53.2071h-8.2051V601.0766H740.5493v-8.1251H767.73Z" style="fill:white"/><path d="M791.5224,592.9515H810.658a23.3567,23.3567,0,0,1,8.6621,1.6113,21.4369,21.4369,0,0,1,6.9309,4.4111,20.2264,20.2264,0,0,1,4.3711,6.068,17.8612,17.8612,0,0,1,1.32,7.2109v1.737a17.4751,17.4751,0,0,1-.9485,5.8624,23.0838,23.0838,0,0,1-2.8055,5.3138,13.9886,13.9886,0,0,1-3.0512,3.2569,16.3176,16.3176,0,0,1-3.794,1.9884l-2.8854,1.1542,1.6913,2.64,12.9475,20.0784H822.8684L808.8867,632.8h-9.0736v21.484h-8.2507Zm20.3755,31.6432.04.0342a11.0362,11.0362,0,0,0,4.4168-.8227,12.6758,12.6758,0,0,0,3.5025-2.5941,11.1048,11.1048,0,0,0,2.64-3.9654,11.932,11.932,0,0,0,.7828-4.5825,12.1528,12.1528,0,0,0-.7828-4.4454,13.125,13.125,0,0,0-2.6-3.714v-.0457a11.3525,11.3525,0,0,0-4.451-2.56,17.82,17.82,0,0,0-5.611-.857H799.7731V624.549h2.5541l3.0969.0457h6.4738Z" style="fill:white"/><path d="M891.7086,592.9515v37.7a23.0064,23.0064,0,0,1-7.0965,17.1644v.0342a24.2154,24.2154,0,0,1-7.8794,5.3253,23.95,23.95,0,0,1-9.2793,1.7713,24.596,24.596,0,0,1-9.3649-1.7256,23.1177,23.1177,0,0,1-7.8737-5.4052,23.7826,23.7826,0,0,1-5.3653-7.8394,24.4956,24.4956,0,0,1-1.7313-9.325v-37.7h8.2908V630.617a15.8914,15.8914,0,0,0,1.1942,6.1024,16.0638,16.0638,0,0,0,3.5083,5.1539,15.196,15.196,0,0,0,5.1939,3.5083,15.3841,15.3841,0,0,0,6.108,1.1884,15.8526,15.8526,0,0,0,6.0624-1.1884,15.4255,15.4255,0,0,0,5.1539-3.5083,15.2026,15.2026,0,0,0,4.7882-11.2563V592.9515Z" style="fill:white"/><path d="M932.78,592.62a33.8212,33.8212,0,0,1,6.2738.5828,29.9133,29.9133,0,0,1,5.8167,1.8513,38.13,38.13,0,0,1,5.36,2.9369c.9885.6856,1.897,1.36,2.72,2.0113l-5.8966,5.908a21.594,21.594,0,0,0-14.1875-5.0395,22.9507,22.9507,0,0,0-8.7421,1.6912,23.5383,23.5383,0,0,0-7.3423,5.04,22.4606,22.4606,0,0,0-4.9939,7.3823h-.04a22.4219,22.4219,0,0,0,5.0339,24.8666,21.0274,21.0274,0,0,0,7.3423,4.9939,22.9507,22.9507,0,0,0,8.7421,1.6913,23.2608,23.2608,0,0,0,8.7822-1.6913,20.8686,20.8686,0,0,0,5.491-3.3026l5.8567,5.8967a33.8005,33.8005,0,0,1-2.7255,2.0226,29.4419,29.4419,0,0,1-5.36,2.9255,27.3,27.3,0,0,1-5.8167,1.817,30.7691,30.7691,0,0,1-6.2681.6171,31.18,31.18,0,0,1-11.9247-2.2627,30.4748,30.4748,0,0,1-10.0621-6.8451A29.7494,29.7494,0,0,1,903.9934,635.6a32.4478,32.4478,0,0,1,0-23.8381,32.6105,32.6105,0,0,1,16.9072-17.0386,30.5188,30.5188,0,0,1,8.5822-2.1027Z" style="fill:white"/><path d="M971.1423,624.3433l18.1871-31.3918H998.78l-17.41,29.9062-.8228,1.44.9485,1.3257,20.0041,28.66h-9.942l-20.3755-29.2776-.04,29.2776h-8.1251V592.9515h8.1251Z" style="fill:white"/><path d="M1028.6634,645.7244a12.9573,12.9573,0,0,0,3.3026-1.92,9.0133,9.0133,0,0,0,2.3712-2.9141,7.994,7.994,0,0,0,.9028-3.714,6.4316,6.4316,0,0,0-.6914-3.0855,8.0885,8.0885,0,0,0-1.8513-2.4455,13.6266,13.6266,0,0,0-2.7883-1.8855,25.7243,25.7243,0,0,0-3.1712-1.4171c-1.0056-.3656-2.1141-.7085-3.3254-1.04a33.001,33.001,0,0,1-7.2394-2.9026,19.6589,19.6589,0,0,1-5.5653-4.6739,14.616,14.616,0,0,1-2.5255-4.4225,15.0235,15.0235,0,0,1-.8914-5.1425,17.5311,17.5311,0,0,1,5.1653-12.5018,17.8825,17.8825,0,0,1,5.7024-3.8283,17.6606,17.6606,0,0,1,6.868-1.36,17.4771,17.4771,0,0,1,6.2624,1.1314,17.7422,17.7422,0,0,1,5.36,3.2,17.1893,17.1893,0,0,1,5.4338,8.5593l-8.1879,1.737a9.4436,9.4436,0,0,0-2.2113-3.4854,9.0474,9.0474,0,0,0-6.5709-2.7541,8.938,8.938,0,0,0-3.5882.7314,9.2662,9.2662,0,0,0-3,2.0227,9.4955,9.4955,0,0,0-2.0456,3.0169,8.9105,8.9105,0,0,0-.737,3.5768,7.7506,7.7506,0,0,0,.4056,2.5256,7.5574,7.5574,0,0,0,1.04,2.0341,8.2227,8.2227,0,0,0,1.6341,1.6456,13.8457,13.8457,0,0,0,1.9484,1.28,22.3549,22.3549,0,0,0,2.24,1.04c.8685.3428,1.6227.6171,2.2569.8228.6343.1942,1.3828.4342,2.2513.7085q1.2942.4113,1.9712.6514a29.9453,29.9453,0,0,1,4.2683,1.8741,23.6756,23.6756,0,0,1,3.88,2.5941,19.5768,19.5768,0,0,1,3.2054,3.2569,14.6089,14.6089,0,0,1,2.1484,3.9768,13.6751,13.6751,0,0,1,.8,4.651,16.0775,16.0775,0,0,1-1.5713,6.9481,17.88,17.88,0,0,1-4.1539,5.6452,20.04,20.04,0,0,1-5.9938,3.7369,18.6637,18.6637,0,0,1-7.0052,1.3827,18.9057,18.9057,0,0,1-7.6394-1.6113,19.24,19.24,0,0,1-6.4452-4.5711,17.3039,17.3039,0,0,1-3.9311-6.7423l8.2279-1.7484a9.701,9.701,0,0,0,3.9312,4.5253,10.6665,10.6665,0,0,0,5.8166,1.76A12.6891,12.6891,0,0,0,1028.6634,645.7244Z" style="fill:white"/><path d="M475.5105,713.8161a56.2119,56.2119,0,0,1-.72,7.628,27.03,27.03,0,0,1-2.8283,7.0965l2.2283,1.4q1.1142.7456,2.3941,1.5085a25.18,25.18,0,0,0,2.68,1.3827,19.61,19.61,0,0,0,3.4626,1.1942l-.04,8.0451a18.1147,18.1147,0,0,1-3.96-.9942,22.9682,22.9682,0,0,1-4.8224-2.1827c-.5771-.3314-.7428-.4228-.4971-.2686.2456.1486.1542.0915-.2915-.1885a37.438,37.438,0,0,1-5.1538-3.5426,20.2032,20.2032,0,0,1-4.5368,4.2682,24.882,24.882,0,0,1-5.9824,2.2856,30.8031,30.8031,0,0,1-8.245,1.24,19.561,19.561,0,0,1-7.548-1.4456,18.6982,18.6982,0,0,1-6.3938-4.1254,17.6131,17.6131,0,0,1-4.2111-6.0224,18.42,18.42,0,0,1-1.36-7.2166h-.04a13.1975,13.1975,0,0,1,2.577-7.9822,56.3293,56.3293,0,0,1,5.2167-5.8338l.2057-.2057c-.0514.0514.1657-.1257.6628-.5371-.1371.1371-.0171.04.3714-.2914l1.857-1.5656-1.4456-1.937a24.1558,24.1558,0,0,1-3.794-10.7248,12.0265,12.0265,0,0,1,1.2342-5.4453,16.4732,16.4732,0,0,1,3.1369-4.0854,18.7025,18.7025,0,0,1,5.8167-3.834,15.4426,15.4426,0,0,1,6.1023-1.4856,16.2036,16.2036,0,0,1,5.4053.9485,18.0727,18.0727,0,0,1,4.8282,2.7255,17.7941,17.7941,0,0,1,3.6683,4.1654,26.6256,26.6256,0,0,1,1.32,2.6l-8.4165,1.7713h-.04a10.0013,10.0013,0,0,0-1.7313-2.0227,7.8389,7.8389,0,0,0-2.3941-1.32,8.4528,8.4528,0,0,0-7.6279,1.1142q-4.4141,3.3855-2.3941,7.9194a36.6034,36.6034,0,0,0,3.32,5.6109q2.46,3.5912,3.8968,5.36,2.357,2.9741,5.7367,6.5823,3.377,3.6084,6.2281,6.2053l2.5541,2.3083a8.3259,8.3259,0,0,0,1.7941-3.9368q.2744-1.9628.4343-5.7938v-.2514Zm-16.9072,19.2385a9.9247,9.9247,0,0,0,3.4226-3.32q-.7456-.6171-1.92-1.5884c-.7828-.6457-1.4228-1.1714-1.92-1.5885a63.8627,63.8627,0,0,1-6.8223-6.5994q-2.6226-3.0084-6.0852-7.588l-1.7313,1.28-.2514.1657a29.9458,29.9458,0,0,0-4.1825,3.754c-1.3656,1.457-2,3.6283-1.92,6.5137a9.7013,9.7013,0,0,0,1.0742,4.2911,12.0282,12.0282,0,0,0,2.68,3.794,9.236,9.236,0,0,0,4.04,2.1484,22.8426,22.8426,0,0,0,4.6853.5314,15.1071,15.1071,0,0,0,4.64-.3257A20.3945,20.3945,0,0,0,458.6033,733.0546Z" style="fill:white"/><path d="M530.3119,680.653v26.6036h27.3463V680.653h8.1708v61.3323h-8.1708V715.3817H530.3119v26.6036h-8.1651V680.653Z" style="fill:white"/><path d="M613.2138,680.5273v8.1708H586.5245v18.5585h20.01v8.1651h-20.01v18.5642h26.6893v8.1651H578.3194V680.5273Z" style="fill:white"/><path d="M673.4633,741.9853H664.684l-4.5368-10.1021H634.075l-4.5368,10.1021h-8.7821l26.3578-61.9094Zm-26.3722-16.7016H657.136q-2.52-5.7767-5.011-12.4161-2.5027-6.6423-4.9711-12.4561-2.52,5.8108-5.0567,12.4561-2.537,6.6423-5.011,12.4161Z" style="fill:white"/><path d="M690.6162,742.5224,664.5925,680.653h8.4936l17.49,42.2367,17.53-42.2367h8.6564Z" style="fill:white"/><path d="M733.5556,680.653l11.3819,21.6954,2.2684,4.3311,2.2684-4.3311L760.862,680.653h9.2792L751.577,714.8446l-.2857,1.24v25.9008h-8.1251V716.0845l-.3314-1.24L724.3163,680.653Z" style="fill:white"/><path d="M817.3089,680.653v26.6036h27.3464V680.653h8.1707v61.3323h-8.1707V715.3817H817.3089v26.6036h-8.1651V680.653Z" style="fill:white"/><path d="M915.5524,741.9853H906.77l-4.5368-10.1021H876.1613l-4.5368,10.1021h-8.7821L889.2,680.0759Zm-26.375-16.7016h10.0449q-2.52-5.7767-5.011-12.4161-2.5026-6.6423-4.971-12.4561-2.52,5.8108-5.0568,12.4561-2.5369,6.6423-5.011,12.4161Z" style="fill:white"/><path d="M969.6681,680.653v37.7a23.0052,23.0052,0,0,1-7.0966,17.1586v.04a24.196,24.196,0,0,1-7.8793,5.32,23.85,23.85,0,0,1-9.2793,1.777,24.5978,24.5978,0,0,1-9.365-1.7313,23.0387,23.0387,0,0,1-7.8736-5.4053,23.7223,23.7223,0,0,1-5.3653-7.8394,24.4446,24.4446,0,0,1-1.7313-9.3192v-37.7h8.2908v37.66a15.8468,15.8468,0,0,0,1.1942,6.1023,16.0638,16.0638,0,0,0,3.5083,5.1539,15.0367,15.0367,0,0,0,5.1938,3.5083,15.3877,15.3877,0,0,0,6.1081,1.1942,15.8587,15.8587,0,0,0,6.0624-1.1942,15.425,15.425,0,0,0,5.1539-3.5083,15.203,15.203,0,0,0,4.7881-11.2562v-37.66Z" style="fill:white"/><path d="M990.3693,680.653V733.9h26.6893v8.0851H982.1642V680.653Z" style="fill:white"/><path d="M1077.3109,741.9853h-8.7821l-4.5368-10.1021H1037.92l-4.5368,10.1021h-8.7822l26.3579-61.9094Zm-26.375-16.7016h10.0449q-2.52-5.7767-5.011-12.4161-2.5027-6.6423-4.9711-12.4561-2.52,5.8108-5.0567,12.4561-2.5369,6.6423-5.011,12.4161Z" style="fill:white"/><path d="M1109.714,680.2416h1.857a30.3266,30.3266,0,0,1,12.0448,2.4341,33.8426,33.8426,0,0,1,5.36,2.9255q1.1571.7886,2.72,2.0227l-5.8566,5.8967a23.4481,23.4481,0,0,0-5.4853-3.2969,22.0479,22.0479,0,0,0-8.7022-1.6913,21.7691,21.7691,0,0,0-8.7421,1.6913,22.5787,22.5787,0,0,0-7.3823,5.0282,23.6322,23.6322,0,0,0-4.9939,7.3879,22.6329,22.6329,0,0,0,4.9939,24.8666,21.9336,21.9336,0,0,0,7.3823,5.0339,22.8429,22.8429,0,0,0,8.7421,1.6913,22.6092,22.6092,0,0,0,7.0509-1.1142,21.1881,21.1881,0,0,0,6.2338-3.1769,23.398,23.398,0,0,0,4.2053-4,22.9254,22.9254,0,0,0,3.0912-4.8224l1.7313-3.674H1113.508v-7.628h29.0777a33.9416,33.9416,0,0,1-1.7713,12.0848,29.1068,29.1068,0,0,1-7.2623,11.5076,32.0058,32.0058,0,0,1-10.102,6.8452,30.7479,30.7479,0,0,1-33.9059-6.8452,29.4767,29.4767,0,0,1-6.8451-10.0678,32.5959,32.5959,0,0,1,0-23.9238,32.7407,32.7407,0,0,1,16.9072-16.9929,30.1128,30.1128,0,0,1,10.0677-2.2684Z" style="fill:white"/><path d="M1187.5192,680.5273v8.1708H1160.83v18.5585h20.01v8.1651h-20.01v18.5642h26.6893v8.1651h-34.8944V680.5273Z" style="fill:white"/><path d="M331.6808,370.1623v-.8469c0-88.4371,67.6159-157.7822,159.4937-157.7822,61.9695,0,101.8473,26.0089,128.7207,62.8517L556.62,323.3676c-17.3451-21.2446-37.2663-35.5371-66.31-35.5371-42.4717,0-72.38,36.3841-72.38,80.6026v.8823c0,45.489,29.9084,81.0261,72.38,81.0261,31.6376,0,50.2708-14.716,68.48-36.8429l63.2752,45.1008c-28.6027,39.4191-67.1748,68.4628-133.926,68.4628C401.4494,527.0622,331.6808,460.7521,331.6808,370.1623Z" style="fill:#febe10"/><polygon points="596.605 227.86 596.606 227.86 596.605 227.859 596.605 227.86" style="fill:#279f7c"/><polygon points="566.688 62.49 494.907 95.499 488.47 109.841 581.038 67.273 566.688 62.49" style="fill:#279f7c"/><polygon points="517.133 45.972 512.269 56.81 527.977 49.586 517.133 45.972" style="fill:#279f7c"/><polygon points="540.158 53.647 506.806 68.984 500.37 83.326 554.508 58.43 540.158 53.647" style="fill:#279f7c"/><path d="M675.1087,98.63l-2.2984-.7662L462.9885,194.3511a183.7036,183.7036,0,0,1,25.6506-1.8532c1.0048,0,1.9989.0446,3,.0608l175.4117-80.6641Z" style="fill:#279f7c"/><path d="M641.1678,154.5022,541.54,200.3162q7.1718,2.17,14.0833,4.9063l75.95-34.9259Z" style="fill:#279f7c"/><path d="M658.9067,125.3012,510.0413,193.7574A181.7576,181.7576,0,0,1,528.135,196.82l121.1769-55.7238Z" style="fill:#279f7c"/><polygon points="646.28 89.02 459.209 175.046 452.773 189.388 660.63 93.804 646.28 89.02" style="fill:#279f7c"/><path d="M623.4291,183.703l-56.9522,26.19q5.9411,2.8068,11.6352,6.032l35.7222-16.4269Z" style="fill:#279f7c"/><path d="M587.1841,221.4139c3.2044,2.0611,6.3584,4.1936,9.4211,6.4456l9.0853-14.9557Z" style="fill:#279f7c"/><polygon points="619.749 80.177 471.108 148.53 464.672 162.872 634.099 84.96 619.749 80.177" style="fill:#279f7c"/><polygon points="593.219 71.333 483.007 122.015 476.571 136.357 607.569 76.117 593.219 71.333" style="fill:#279f7c"/></svg>